<?xml version="1.0" encoding="UTF-8" standalone="no"?>
<svg
   version="1.1"
   width="1024"
   height="1024"
   id="svg1220"
   sodipodi:docname="TMA Logo.svg"
   inkscape:version="1.2.2 (732a01da63, 2022-12-09)"
   inkscape:export-filename="OIG3.png"
   inkscape:export-xdpi="96"
   inkscape:export-ydpi="96"
   xmlns:inkscape="http://www.inkscape.org/namespaces/inkscape"
   xmlns:sodipodi="http://sodipodi.sourceforge.net/DTD/sodipodi-0.dtd"
   xmlns="http://www.w3.org/2000/svg"
   xmlns:svg="http://www.w3.org/2000/svg">
  <defs
     id="defs1224" />
  <sodipodi:namedview
     id="namedview1222"
     pagecolor="#505050"
     bordercolor="#eeeeee"
     borderopacity="1"
     inkscape:showpageshadow="0"
     inkscape:pageopacity="0"
     inkscape:pagecheckerboard="0"
     inkscape:deskcolor="#505050"
     showgrid="false"
     inkscape:zoom="0.57245266"
     inkscape:cx="458.5532"
     inkscape:cy="517.07332"
     inkscape:window-width="1920"
     inkscape:window-height="1009"
     inkscape:window-x="-8"
     inkscape:window-y="-8"
     inkscape:window-maximized="1"
     inkscape:current-layer="g3632" />
  <g
     id="g3632"
     transform="translate(2.5000047)">
    <path
       id="path4"
       style="fill:#ffffff;fill-opacity:1;stroke-width:1.30394"
       d="m 178.86718,82.205078 v 0.002 c 0.0443,0.6298 0.11063,0.922874 0.16016,1.314453 h -0.002 c 0.009,0.0676 0.0176,0.161963 0.0273,0.226563 l 0.002,0.002 c 0.13153,0.880819 0.35096,1.67555 1.11524,3.673828 2.60074,2.255048 5.10202,4.229195 7.90234,6.195313 l 2.24414,1.625 c 0.8039,0.581329 1.61601,1.150683 2.42383,1.726562 0.002,0.002 9.1e-4,0.0049 0.004,0.0059 1.02251,0.72885 2.04284,1.461168 3.06836,2.185547 -0.15083,-0.0161 -0.28525,-0.06493 -0.43555,-0.08203 l 0.0254,0.01953 c -2.85612,-0.322659 -5.59809,-0.843374 -8.30274,-1.464843 -0.30308,-0.0855 -0.60511,-0.17046 -0.9082,-0.25586 -2.57585,-0.621069 -5.17612,-1.379304 -7.74023,-2.183594 -1.46143,-0.458359 -2.90677,-0.834161 -4.39258,-1.332031 -2.17526,-0.728859 -4.35313,-1.451576 -6.5332,-2.166015 l -2.88477,-0.966797 c -2.32934,-0.59735 -3.20441,-0.661398 -6.52539,-0.673828 h -0.002 c -0.0403,-1.5e-4 -0.0604,-0.002 -0.10157,-0.002 -0.52677,-0.002 -0.60911,-0.02344 -1.30078,-0.02344 0.15134,1.850748 0.29229,2.769871 0.54492,3.8125 l -0.002,0.01172 c 0.16751,0.689559 0.33846,1.33248 0.75586,2.699219 1.05302,0.643029 1.58252,0.925674 2.18555,1.240234 0.98954,0.516159 1.96554,0.918955 4.21484,1.677734 l 3.9082,1.363287 4.11329,1.34179 4.12695,1.41993 c 3.36933,1.15457 6.74575,2.28332 10.13086,3.39062 v 1.30469 l -2.55274,-0.73828 c -3.81748,-1.09843 -7.63784,-2.17757 -11.46093,-3.25586 l -4.01368,-1.16406 -3.86914,-1.08399 -3.55859,-1.01367 c -0.94027,-0.16632 -1.63856,-0.11391 -2.41602,-0.14844 -0.26227,-0.0377 -0.57249,-0.0414 -0.83398,-0.0508 -1.6455,0.0247 -3.22277,0.25755 -5.1875,0.93359 0.32302,2.45192 0.3222,2.45154 1.30273,5.2168 2.30197,1.43041 2.30158,1.42956 5.25977,2.50586 l 3.19531,1.19727 3.35938,1.1875 3.37304,1.24804 c 2.75288,1.01558 5.51158,2.01287 8.27735,2.99219 -6.19259,0 -11.79605,-2.35206 -17.66992,-4.20508 -4.37503,-0.98768 -6.77656,-0.98934 -11.00977,0.29102 0.59613,1.78951 0.911,2.62988 1.30664,3.2793 0.46954,0.77058 1.04962,1.22014 2.29883,1.91601 l 2.95898,1.09766 3.19532,1.20898 3.35742,1.2207 3.37305,1.26563 c 0.16178,0.0605 0.32455,0.11928 0.48632,0.17969 l 0.0137,0.004 c 2.58888,0.96728 5.18349,1.9222 7.77929,2.8711 l -19.55273,1.30468 v 0.002 c 5.49022,3.66173 11.41793,6.11808 17.51758,8.08789 0.002,8.5e-4 0.006,9.5e-4 0.01,0.002 8.00754,2.58467 16.3484,4.23321 24.73242,5.7168 0.0376,0.007 0.0739,0.0168 0.11133,0.0234 0.002,2.9e-4 0.005,-2.9e-4 0.006,0 3.45877,0.62209 6.60239,1.36031 9.53906,2.26367 8.8164,2.71144 15.75948,6.90827 23.68946,13.90234 l 2.38867,2.02539 c 1.74209,1.50838 3.42842,3.08181 5.10742,4.66016 4.07612,3.79128 8.16266,7.53803 12.38281,11.16797 3.20653,2.76929 6.14996,5.62786 9.04297,8.7207 10.87317,11.00285 24.2502,18.33803 38.26758,24.31445 7.9e-4,3.1e-4 0.003,-3.1e-4 0.004,0 4.67263,1.99219 9.41646,3.83252 14.16211,5.60938 3.5088,1.34998 6.79858,2.85773 9.99414,4.54687 3.35825,1.77508 6.61101,3.75243 9.85937,6.02539 13.89668,9.30046 31.15053,9.08239 47.39844,9.88282 l 0.70508,0.0508 4.19336,0.30078 c 0.99683,0.0435 1.81063,-0.058 2.7539,-0.0527 0.005,4e-5 0.0106,-3e-5 0.0156,0 11.01031,0.0611 18.73956,-2.4012 28.83203,-8.12304 v -2.60938 l -3.72852,-0.48828 c -12.86144,-2.06765 -20.88588,-6.05926 -31.46875,-13.85937 -11.80327,-8.13719 -23.3999,-14.62116 -36.99414,-19.23438 -7.97613,-2.76353 -14.36589,-5.52881 -20.77148,-11.0918 -11.04799,-9.54778 -23.08443,-17.08513 -35.84766,-24.1289 l -4.27734,-2.38477 c -9.16303,-5.0821 -18.42196,-9.94901 -27.74219,-14.73437 -15.59339,-8.05214 -28.26411,-15.91094 -37.15039,-31.46485 -3.53814,-5.920931 -9.14377,-11.615605 -15.65039,-15.925781 -0.004,-0.003 -0.01,-0.0048 -0.0137,-0.0078 -1.6902,-1.118969 -3.44184,-2.138689 -5.23438,-3.048828 -0.0237,-0.0117 -0.0448,-0.02922 -0.0684,-0.04102 -0.003,-8.5e-4 -0.005,-0.002 -0.008,-0.002 -1.68291,-0.850769 -3.40883,-1.573966 -5.14844,-2.203125 -0.15213,-0.0546 -0.29879,-0.136643 -0.45117,-0.189453 -1.56703,-0.546689 -3.15419,-0.932172 -4.74023,-1.269531 -0.32862,-0.0694 -0.6538,-0.19613 -0.98243,-0.25586 -1.8946,-0.346909 -3.79082,-0.535156 -5.66992,-0.535156 z m 662.20508,0.08008 c -14.5167,0.4303 -29.96481,11.468552 -37.09375,23.398432 -8.88622,15.55391 -21.55674,23.41465 -37.15039,31.4668 -9.32024,4.78537 -18.57916,9.65227 -27.74219,14.73438 l -4.27734,2.38476 c -12.76323,7.04376 -24.79941,14.58113 -35.84766,24.12891 -6.40559,5.56299 -12.79535,8.32828 -20.77148,11.09179 -13.59424,4.61323 -25.19061,11.09523 -36.99414,19.23243 -10.58287,7.8001 -18.6083,11.79225 -31.46875,13.85937 L 606,223.07031 v 2.60938 c 10.74867,6.09371 18.69324,8.59418 30.92187,8.16406 l 4.71484,-0.33789 c 16.24817,-0.80042 33.49968,-0.5843 47.39649,-9.88477 6.3395,-4.43593 12.65744,-7.80362 19.85351,-10.57226 18.98268,-7.10742 37.93534,-15.25065 52.4336,-29.92188 2.89297,-3.09283 5.83652,-5.95335 9.04297,-8.72265 4.22033,-3.62993 8.30868,-7.37669 12.38476,-11.16797 1.679,-1.57835 3.36536,-3.15177 5.10742,-4.66016 l 2.38672,-2.02539 c 10.57161,-9.32387 19.38551,-13.67687 33.22852,-16.16601 14.81514,-2.61888 29.64397,-5.33738 42.3789,-13.83204 l -19.55273,-1.30468 c 2.76216,-1.00975 5.52318,-2.02324 8.27734,-3.05469 l 3.37305,-1.26563 3.35742,-1.2207 3.19532,-1.20898 2.95898,-1.09766 c 2.30197,-1.28232 2.30191,-1.28244 3.60547,-5.19531 -1.97931,-0.59863 -3.53043,-0.86341 -5.09766,-0.93164 -1.52924,0.0142 -3.06161,0.19202 -5.04883,0.64062 -5.874,1.853 -11.47716,4.20508 -17.66992,4.20508 0.0919,-0.0325 0.18359,-0.0669 0.27539,-0.0996 -0.38301,0.0178 -0.75124,0.0996 -1.13867,0.0996 2.76582,-0.97932 5.52446,-1.97661 8.27734,-2.99219 l 3.375,-1.24804 3.35743,-1.1875 3.19531,-1.19727 c 2.95817,-1.07629 2.9578,-1.07545 5.25976,-2.50586 0.98056,-2.76526 0.98169,-2.76488 1.30469,-5.2168 -1.51631,-0.52174 -2.74134,-0.82035 -3.98242,-0.95312 -1.10143,-0.045 -2.19372,-0.0284 -3.5918,0.21875 l -3.56054,1.01367 -3.86914,1.08399 -4.01368,1.16406 c -3.8232,1.07828 -7.64342,2.15548 -11.46093,3.2539 l -2.55274,0.74024 v -0.25 l -0.86133,0.25 v -1.30469 c 3.38504,-1.1073 6.7596,-2.23605 10.12891,-3.39062 l 4.12695,-1.41993 4.11328,-1.34179 3.90821,-1.363284 c 3.62014,-1.221199 3.61978,-1.21978 6.40039,-2.917968 1.04915,-3.434727 1.05088,-3.452196 1.30078,-6.507813 -3.9712,0.005 -4.58977,0.04737 -7.07031,0.683594 l -2.88477,0.96875 c -2.18008,0.714429 -4.35796,1.435203 -6.5332,2.164062 -7.26647,2.434818 -14.11829,4.484319 -21.75391,5.298828 0.1014,-0.0716 0.20337,-0.145147 0.30469,-0.216797 -0.39993,0.0499 -0.76176,0.173677 -1.16602,0.216797 1.83787,-1.298078 3.67268,-2.59951 5.4961,-3.917968 l 2.24219,-1.625 c 2.80031,-1.966128 5.30338,-3.940265 7.90429,-6.195313 1.12617,-2.944727 1.14269,-3.028114 1.29297,-5.138672 z M 511.24609,117.87891 c -0.27727,-0.0158 -0.55892,0.0105 -0.83984,0.0293 h -0.002 c -0.143,0.009 -0.28603,0.0193 -0.42773,0.0156 -0.19657,0.005 -0.39522,-0.004 -0.59375,-0.0195 -0.14092,0.0184 -0.28292,0.0382 -0.42383,0.0566 -1.04612,-8.5e-4 -2.10362,0.13907 -3.15625,0.20508 -1.23487,0.0777 -2.46747,0.13157 -3.70898,0.31054 -2.01897,0.30112 -4.04626,0.72278 -6.07813,1.36524 -2.06968,1.03367 -4.02848,2.24922 -5.88086,3.60742 -5.2e-4,3.9e-4 -0.004,-3.9e-4 -0.004,0 -4.72346,3.46385 -8.61113,7.96328 -11.64453,13.00195 -0.43487,0.72234 -0.94642,1.39498 -1.34179,2.14063 -1.42388,4.83323 -1.34453,9.46933 -1.22852,14.45508 l 0.0371,2.92578 c 0.0313,2.36676 0.0774,4.73317 0.12695,7.09961 h -1.45703 -1.15039 c -0.1009,1.61722 -0.0835,3.07887 -0.0234,4.51171 0.0751,1.37914 0.22386,2.69417 0.4336,3.98633 8.5e-4,0.007 9.5e-4,0.0149 0.002,0.0215 0.58765,3.61039 1.7025,7.03292 3.5,11.04492 l 2.60547,1.30469 c 1.00335,2.5098 1.91906,5.05472 2.79687,7.61132 0.35548,2.01094 0.75588,4.9342 1.08985,8.16211 1.00401,4.053 1.70087,8.18643 1.73828,12.43164 -0.21796,6.90689 -1.994,11.20607 -6.92578,16.14063 -7.80315,4.36389 -14.96353,5.58856 -23.66406,5.45898 -0.33853,-0.0976 -0.66212,-0.12252 -1.00196,-0.21875 -0.0354,-0.0105 -0.0675,-0.009 -0.10351,-0.0215 -17.28282,-1.42576 -34.95654,-0.5604 -50.83985,6.8457 -1.75433,0.76185 -3.53806,1.24249 -5.33398,1.60547 -0.34193,0.0689 -0.68203,0.15041 -1.02539,0.20703 -0.87691,0.14489 -1.76618,0.15715 -2.65039,0.22852 -1.5197,0.12221 -3.04292,0.20357 -4.57813,0.15234 -0.91041,-0.03 -1.82057,-0.0788 -2.73437,-0.1543 -1.48841,-0.1235 -2.9763,-0.27299 -4.46875,-0.47656 -1.08353,-0.14759 -2.15932,-0.2742 -3.24219,-0.4414 -0.0219,-0.004 -0.0445,-0.004 -0.0664,-0.008 l -0.0664,-0.01 c -1.75825,-0.27215 -3.5182,-0.55285 -5.26563,-0.8086 -7.80379,-0.9814 -15.67154,-0.98627 -23.52539,-1.1914 -12.39262,-0.35665 -18.19119,-0.80214 -24.67578,-1.67188 -0.29943,-0.0147 -0.6033,-5.3e-4 -0.90234,-0.0176 -3.57399,-0.52412 -7.64997,-1.19422 -13.98047,-2.29492 -2.11048,-0.49377 -4.20258,-0.83246 -6.29297,-1.13086 -1.85211,-0.24909 -3.69882,-0.43976 -5.54688,-0.58398 -0.0145,-8.5e-4 -0.0306,-0.003 -0.0449,-0.004 -0.005,-4.8e-4 -0.013,4.9e-4 -0.0176,0 -1.57444,-0.16076 -4.0796,-0.17885 -5.98437,-0.27148 -3.84513,-0.1033 -7.68612,-0.15295 -11.64453,-0.0937 -1.82056,0.0149 -3.64038,0.0273 -5.46094,0.0391 -7.66367,0.0513 -15.32722,0.13721 -22.99023,0.23047 -4.71448,0.056 -9.42811,0.092 -14.14258,0.11719 -2.63556,0.0202 -5.27108,0.0638 -7.90625,0.10742 -3.34612,0.0179 -6.55919,-0.10675 -9.69922,-0.37695 -2.30861,-0.19862 -4.5648,-0.52291 -6.78906,-0.94922 -0.9022,-0.17477 -1.79495,-0.42795 -2.68555,-0.64844 -1.68186,-0.41244 -3.35022,-0.92218 -4.99805,-1.51953 -0.79348,-0.28983 -1.59546,-0.57431 -2.38281,-0.91211 -2.38735,-1.01878 -4.75722,-2.19031 -7.10547,-3.71484 -2.08871,-1.33516 -4.18017,-2.66604 -6.27344,-3.99415 l -4.18359,-2.83789 c -0.7957,-0.45113 -1.57422,-0.69718 -2.35937,-1.02148 -0.5922,-0.29066 -1.21402,-0.57123 -1.82227,-0.78711 -1.09056,-0.38712 -2.47676,-0.5833 -3.78711,-0.76367 -0.44203,-0.0553 -0.90145,-0.0553 -1.35156,-0.0859 -1.99069,-0.15546 -4.07945,-0.11695 -6.23633,-0.0371 -2.4872,0.0117 -4.67912,-0.0237 -8.26172,0.16797 -0.004,1e-4 -0.006,-1e-4 -0.01,0 -1.43338,0.0456 -2.86772,0.0859 -4.30079,0.13867 l -0.0156,-0.0273 c 0,0 -12.46765,-0.38624 -13.35547,3.89844 l -0.35351,1.71093 -0.88868,3.55664 c 1.59935,0.35095 3.19909,0.69787 4.79883,1.04688 0.002,5.8e-4 0.005,0.004 0.008,0.004 1.38504,0.30217 2.76914,0.60504 4.1543,0.90625 l 5.04297,1.10156 c 4.2469,0.85665 4.2464,0.85547 6.85352,0.85547 v 2.60937 h -35.19727 v 5.2168 l 27.375,3.91211 c -7.60422,0.37688 -7.6041,0.37807 -15.20898,0.74219 l -2.86719,0.15039 -0.52149,0.0254 c -0.009,7.4e-4 -0.0198,0.003 -0.0293,0.004 l -2.38672,0.11524 c -0.44192,0.0482 -0.58037,0.10438 -0.89258,0.14453 -0.58113,0.0746 -1.23624,0.15523 -1.66211,0.29297 l -0.002,0.002 c -0.61268,0.19846 -1.24037,0.50263 -2.5,1.13281 v 3.91407 c 0.46224,0.13528 0.88803,0.15699 1.33984,0.26953 2.5271,0.62939 5.01261,0.93459 7.55274,1.03515 0.93608,0.037 1.82739,0.13291 2.81835,0.12696 l 3.69336,-0.0137 3.82422,-0.0332 3.88477,-0.0176 c 3.1588,-0.0152 6.31789,-0.0357 9.47656,-0.0625 v 2.60742 l -8.56055,0.37305 -18.625,0.8086 -2.79687,0.12304 v 1.30469 2.60938 c 0.41923,0.20974 0.73303,0.22896 1.11523,0.38671 2.27538,0.93906 4.10674,1.19333 6.87891,1.33008 l 3.18359,0.16406 3.32422,0.15625 3.35547,0.16993 c 2.73749,0.13849 5.47501,0.27035 8.21289,0.40039 l -13.79687,1.25586 h -0.004 l -0.53711,0.0488 -0.25976,0.78125 -1.04493,3.13086 0.82813,1.65821 0.47656,0.95117 c 1.17881,0.0225 2.35634,0.0292 3.53516,0.0488 0.004,5e-5 0.008,-5e-5 0.0117,0 3.02283,0.0501 6.04526,0.0945 9.06836,0.12695 h 0.0742 c 0.89112,0.009 1.78246,0.031 2.67383,0.0391 2.58055,0.0289 5.16192,0.0786 7.74219,0.12891 3.34039,0.0254 6.5234,-0.10582 9.64844,-0.3457 0.002,-1.9e-4 0.007,2e-4 0.01,0 4.82372,-0.37067 9.47985,-1.10295 14.14063,-2.38086 0.003,-8.5e-4 0.006,-9.6e-4 0.01,-0.002 2.56425,-0.70359 5.14507,-1.58791 7.75977,-2.64453 0.008,-0.003 0.0157,-0.004 0.0234,-0.008 0.27349,-0.1106 0.5381,-0.17032 0.8125,-0.28516 15.02438,-5.72246 35.54236,-0.50144 51.28906,4.49805 1.71145,0.54338 3.62841,1.08363 5.20703,1.60742 3.17392,0.99913 6.32572,1.80704 9.46875,2.50195 0.53889,0.12104 1.07516,0.21878 1.61328,0.33204 2.3399,0.48292 4.67521,0.86925 7.00781,1.21289 2.75052,0.41887 5.50247,0.69543 8.25391,0.95117 4.53942,0.40206 9.08319,0.68197 13.66602,0.76953 3.57255,0.12429 7.29948,0.055 10.95312,0.0684 3.84135,-0.0667 7.67443,-0.13376 11.61524,-0.27149 4.73976,-0.13551 9.26523,-0.021 13.73632,0.2168 2.04739,0.10891 4.09653,0.20676 6.1211,0.40235 0.008,7.3e-4 0.0158,9.5e-4 0.0234,0.002 0.43161,0.0417 0.86957,0.0791 1.30079,0.125 1.69906,0.18071 3.40366,0.47066 5.10351,0.7168 0.003,3.9e-4 0.005,0.002 0.008,0.002 4.82932,0.6996 9.67904,1.57509 14.70899,2.85156 9.23681,2.33322 17.81857,3.27829 27.36719,2.94922 l 4.26953,-0.0684 c 1.83816,-0.0428 3.64778,-0.233 5.47656,-0.31641 0.031,-0.003 0.045,-0.002 0.0762,-0.004 4.49131,-0.20626 8.96368,-0.51662 13.42578,-0.94922 4.69284,-0.4883 9.37722,-1.04799 14.06641,-1.8418 -0.4466,-0.9248 -0.95898,-1.73971 -1.43359,-2.60742 -0.0252,-0.0459 -0.0513,-0.0926 -0.0762,-0.13867 -0.36514,-0.66306 -0.70997,-1.35833 -1.09765,-1.99805 -0.18054,-0.29792 -0.35473,-0.61795 -0.54102,-0.91211 -0.63483,-1.00259 -1.3738,-1.98017 -2.08789,-2.96093 -0.43892,-0.60152 -0.80727,-1.21278 -1.28125,-1.81641 1.99276,1.11851 3.71332,2.44209 5.39453,3.80078 0.0942,0.0597 0.22399,0.091 0.31641,0.15234 0.17611,0.14469 0.36594,0.27867 0.53906,0.42579 0.053,0.0381 0.0963,0.0864 0.14453,0.1289 0.14065,0.12064 0.27927,0.24297 0.41797,0.36524 1.58501,1.39754 2.99923,2.9373 4.36328,4.52539 3.65065,4.25 6.69005,9.0668 9.59961,14.24218 5.3209,9.0801 12.26884,15.5742 22.375,18.85157 3.47806,0.77333 6.75418,0.81649 10.29492,0.55078 v 2.60742 l -27.375,2.60937 c 1.06724,7.28064 2.16405,14.30975 4.23243,21.36719 1.52477,5.34905 2.57702,10.60183 3.42382,15.85547 7.8e-4,0.003 0.004,0.005 0.004,0.008 8.5e-4,0.007 9.5e-4,0.0147 0.002,0.0215 0.67499,4.19262 1.18024,8.40612 1.49219,12.65234 0.0239,0.30169 0.0559,0.60597 0.0781,0.9082 0.29486,4.35028 0.48074,8.74066 0.46484,13.26172 l -0.0137,5.15235 c -0.045,2.90164 -0.1269,5.78796 -0.28711,8.65429 -0.16021,2.86633 -0.39945,5.71198 -0.76172,8.53907 -0.72439,5.65506 -1.93868,11.22656 -3.99219,16.70117 -2.0144,5.72115 -3.07451,11.48028 -4.07422,17.44531 l -0.45312,2.65625 c -0.27518,1.71743 -0.50051,3.44174 -0.7461,5.16211 -3.9e-4,0.003 -0.002,0.005 -0.002,0.008 -0.22108,1.54886 -0.46474,3.09451 -0.67383,4.64649 l -0.68359,5.04882 c -1.80296,14.12713 -2.33145,28.07835 -2.26367,42.3125 0.0144,3.5018 0.002,7.0041 -0.0156,10.50586 -0.0391,39.42461 -0.0381,39.42524 7.44531,56.33985 0.61554,1.52671 1.04366,3.06299 1.5879,4.59179 3.57828,10.05261 5.78624,20.18038 7.0039,30.6836 0.42653,3.55671 0.75259,7.15742 0.99024,10.81445 0.27557,2.74069 0.27651,2.73947 1.58007,6.65235 -0.68737,3.10576 -0.68828,3.1071 -1.83398,6.49218 -2.20642,7.6739 -2.78066,14.73322 -2.72852,22.69141 l 0.0234,4.12695 c 0.14065,6.24831 0.8178,12.20524 1.88086,18.09961 1.06306,5.89519 2.51111,11.72644 4.19336,17.71875 1.24985,4.56341 2.40222,9.14721 3.53711,13.74024 l 0.62891,2.54687 0.6289,2.54297 c 1.2006,4.86137 2.41384,9.7199 3.63477,14.57617 l 1.0332,4.10938 0.66992,2.66797 0.0645,0.25 -3.71289,-0.80274 -3.19922,-0.6875 c -0.013,-0.003 -0.0263,-0.007 -0.0391,-0.01 l -1.67578,-0.36133 -4.85156,-1.04688 c -3.33101,-0.70305 -6.60253,-1.21113 -9.86719,-1.70117 -2.7788,-0.39056 -5.53815,-0.72541 -8.2832,-0.99414 -0.009,-8.5e-4 -0.0188,-9.5e-4 -0.0273,-0.002 -26.72167,-2.61176 -51.7236,1.6146 -78.25391,10.53125 -1.79892,0.59692 -3.61358,1.14662 -5.41602,1.73242 -6.32346,2.05514 -12.65294,4.09058 -18.99804,6.07812 -2.74819,0.8627 -5.49298,1.73208 -8.23828,2.60352 -1.70741,0.53704 -3.41538,1.07314 -5.12305,1.60937 l -4.54297,1.4336 c -6.13406,1.72308 -11.92727,2.53522 -17.70508,2.47461 -5.77791,-0.0606 -11.53931,-0.99334 -17.61719,-2.76172 l -3.07031,-0.8711 c -2.5941,-0.77277 -5.30213,-1.66197 -8.00976,-2.63476 -0.009,-0.003 -0.0168,-0.005 -0.0254,-0.008 -0.003,-0.002 -0.007,-0.003 -0.01,-0.004 -6.05298,-2.17737 -12.05153,-4.98869 -16.42383,-9.36328 -2.42751,-0.0829 -4.85856,-0.0766 -7.28711,-0.0352 l -4.61328,0.0566 -4.96484,0.0606 c -0.54516,0.003 -1.05537,-0.0205 -1.59766,-0.0195 -0.009,10e-6 -0.0168,-4e-5 -0.0254,0 -6.516,0.013 -12.8221,-0.18799 -19.0332,-0.55664 -1.95666,-0.11751 -3.93777,-0.24311 -5.87696,-0.41797 -1.82498,-0.16352 -3.66954,-0.33031 -5.48437,-0.55273 -3.97549,-0.4893 -7.93846,-1.08922 -11.90039,-1.91797 -0.002,-6.5e-4 -0.005,-9.6e-4 -0.008,-0.002 -5.18416,-1.08473 -10.3832,-2.45158 -15.65625,-4.2832 -3.64856,-1.21965 -7.10847,-2.12379 -10.89258,-2.76562 5.11428,6.3436 10.46994,11.75093 16.86523,16.79296 l 2.57617,2.03711 c 4.19461,3.2495 8.55265,6.27583 12.97461,9.19922 1.14049,0.75316 2.28503,1.49818 3.43946,2.22852 4.37607,2.77171 8.82605,5.4296 13.38867,7.86133 0.69375,0.36896 1.4117,0.68414 2.10937,1.04492 3.91069,2.02659 7.89451,3.89595 11.92188,5.6582 1.60534,0.70069 3.21183,1.39358 4.83398,2.05078 4.44204,1.80418 8.92906,3.48949 13.48438,4.95508 0.004,8.5e-4 0.006,9.5e-4 0.01,0.002 1.49597,0.48006 3.02055,0.85641 4.52735,1.29883 3.44766,1.01449 6.91946,1.93298 10.41797,2.74414 1.93853,0.44885 3.87786,0.8943 5.83007,1.2793 16.70209,3.29526 33.85803,4.3217 51.07032,2.46289 28.65878,-4.01548 54.575,-16.78563 80.09375,-29.7793 8.0503,-4.09031 16.15159,-7.92373 24.48242,-11.41211 l 2.66016,-1.13281 c 7.11512,-2.91102 13.9217,-4.35642 20.9414,-5.10351 0.004,-3.6e-4 0.008,3.4e-4 0.0117,0 4.95694,-0.52701 10.00244,-0.75343 15.41211,-0.69336 l 4.45117,0.002 c 7.75869,-0.073 7.75864,-0.0724 15.26563,1.54687 1.88325,0.0815 3.76934,0.0961 5.65429,0.0762 0.152,-0.002 0.30516,0.009 0.45703,0.006 l 3.19141,-0.0352 2.42969,-0.0469 c 0,-5.29376 -2.0529,-9.2679 -4.07422,-14.11328 -3.3452,-12.16341 0.34587,-24.12627 3.06055,-36.09961 3.11981,-14.51058 3.26142,-26.9981 -0.94141,-41.25 -4.41127,-14.17037 -4.41114,-14.16903 -2.05664,-28.27148 2.04008,-4.1628 2.65631,-8.51316 3.39648,-13.04883 l 0.50782,-3.09961 c 0.89946,-5.83597 1.44983,-11.69937 1.93554,-17.56836 0.63327,-7.58301 1.0942,-15.1801 1.51172,-22.79101 0.29175,-5.16676 0.59289,-10.33433 0.90235,-15.5 l 0.22461,-3.75 c 0.57486,-9.06983 1.53644,-18.02578 2.80273,-27.02344 0.3667,-2.94275 0.50601,-5.72477 0.59961,-8.48828 0.0345,-1.30863 0.0588,-2.61169 0.0293,-3.89258 -0.015,-1.06751 -0.10723,-2.11471 -0.16602,-3.16797 -0.2246,-3.48511 -0.6254,-6.91971 -1.30859,-10.35547 0,-0.004 -1.3e-4,-0.008 0,-0.0117 -0.89308,-4.48807 -2.05542,-8.99736 -3.81641,-13.73242 l 1.30273,-1.30469 0.40821,2.44532 c 0.70263,2.17262 1.3628,2.88617 3.27929,4.24414 0.52833,0.37439 0.68212,0.57294 1.52735,1.13672 0.71071,0.0756 1.1854,0.0312 1.76562,0.043 0.54698,0.005 1.17936,0.0551 1.69727,0.043 0.10598,-0.002 0.21122,0.007 0.3125,0.008 0.0404,1.9e-4 0.0856,0.003 0.125,0.004 0.0406,0.002 0.0812,0.004 0.11719,0.004 v -0.006 -0.006 c 0.25028,0.005 0.60994,-0.022 0.89843,-0.0176 0.89255,0.0142 1.73696,0.0543 2.90821,-0.0703 3.9107,-2.6086 3.91044,-2.60922 4.80664,-5.38086 l 0.4082,-2.44531 0.74024,0.74218 0.12304,-0.74218 1.30274,1.30468 c -5.03438,13.53728 -6.44918,25.3056 -4.66211,39.64844 1.26628,8.99766 2.22785,17.95361 2.80273,27.02344 l 0.22461,3.75 c 0.30947,5.16567 0.61059,10.33129 0.90234,15.49805 0.74082,13.50088 1.38581,26.98299 3.44727,40.35937 l 0.50781,3.10156 c 0.74016,4.53567 1.3564,8.88408 3.39649,13.04688 2.35449,14.10245 2.35475,14.10112 -2.05664,28.27148 -4.20284,14.2519 -4.06124,26.74137 -0.94141,41.25196 2.71468,11.97333 6.40575,23.93618 3.06055,36.09961 -2.02132,4.84536 -4.07422,8.81951 -4.07422,14.11328 l 2.42773,0.0449 2.72266,0.0312 c 1.90621,0.0213 3.81423,0.007 5.71875,-0.0762 7.5071,-1.61933 7.50692,-1.6199 15.26562,-1.54688 h 0.86329 l 3.58789,-0.002 c 0.0105,-1.1e-4 0.0189,1.1e-4 0.0293,0 h 0.83399 c 13.07477,-0.14518 24.22057,0.82896 36.36328,5.79687 l 2.66211,1.13086 c 8.33096,3.48838 16.43225,7.32375 24.48242,11.41407 25.51861,12.99365 51.4329,25.76379 80.0918,29.77929 5.87022,0.63395 11.73567,0.92034 17.58007,0.92383 41.78564,-0.19152 82.42529,-16.0367 115.56446,-41.70898 l 2.57812,-2.03711 c 6.2934,-4.96159 11.56871,-10.29859 16.60938,-16.51172 -3.34092,0.62496 -6.49915,1.38985 -9.77344,2.48437 -19.84977,6.89498 -38.64485,7.84925 -59.58203,7.75 l -0.44336,-0.006 c -0.14314,-5.7e-4 -0.27661,0.006 -0.41992,0.006 l -4.96485,-0.0625 -4.36718,-0.0527 c -2.22351,-0.0321 -4.44777,-0.0425 -6.66993,0.0332 -6.33589,6.33932 -16.06231,9.50416 -24.46679,12.00781 l -3.07227,0.87305 c -6.24747,1.81771 -12.16733,2.71822 -18.10742,2.73047 -5.90176,0.1003 -11.81201,-0.68322 -18.07812,-2.44336 l -4.54297,-1.43359 c -1.70768,-0.53623 -3.41564,-1.07429 -5.12305,-1.61133 -2.74531,-0.87144 -5.49009,-1.74082 -8.23828,-2.60352 -8.1538,-2.55407 -16.30431,-5.1194 -24.41406,-7.81054 -20.2161,-6.79443 -39.52818,-10.92855 -59.39844,-11.35938 -11.75439,-0.19125 -23.70653,0.89712 -36.16797,3.52735 l -4.85352,1.04687 -4.91406,1.05664 -3.71289,0.80274 0.0488,-0.19727 -0.91016,0.19727 0.73242,-2.91797 1.03321,-4.10743 c 1.22092,-4.85627 2.43613,-9.71675 3.63672,-14.57812 l 0.6289,-2.54102 0.62891,-2.54882 c 1.13488,-4.59303 2.2853,-9.17683 3.53516,-13.74024 3.36411,-11.98297 5.79486,-23.3198 6.07617,-35.8164 l 0.0215,-4.12696 c 0.0521,-7.95822 -0.52209,-15.01946 -2.72851,-22.69336 -1.14557,-3.3851 -1.14661,-3.38446 -1.83399,-6.49023 1.30357,-3.91288 1.30516,-3.91322 1.58008,-6.6543 1.04625,-16.10094 3.54717,-31.12047 9.58203,-46.08984 7.4839,-16.91463 7.48467,-16.9152 7.44531,-56.33985 -0.0169,-3.50175 -0.0299,-7.00213 -0.0156,-10.5039 0.0677,-14.23418 -0.46072,-28.18731 -2.26367,-42.31446 l -0.68555,-5.04882 c -0.44165,-3.27841 -0.89667,-6.5482 -1.41992,-9.81446 l -0.45313,-2.6582 c -0.99971,-5.96503 -2.05981,-11.72417 -4.07422,-17.44531 -4.10648,-10.94759 -4.86099,-22.28594 -5.04101,-33.89258 l -0.0117,-5.1543 c -0.0521,-14.80726 1.38715,-28.40747 5.46289,-42.70507 2.06837,-7.05746 3.16519,-14.08849 4.23242,-21.36915 l -27.375,-2.60742 v -2.60937 c 0.29552,0.0222 0.57116,0.002 0.86328,0.0195 v -0.0195 c 1.51748,0.11386 2.97439,0.13222 4.43164,0.0996 1.65513,-0.0785 3.30329,-0.27312 5,-0.65039 10.10628,-3.27738 17.05424,-9.76951 22.375,-18.84961 5.39912,-9.60403 11.02093,-18.16549 20.77539,-23.64063 -0.31572,0.4021 -0.55408,0.80831 -0.85351,1.20899 0.60003,-0.38132 1.08288,-0.85318 1.7168,-1.20899 -2.62891,3.34771 -4.66926,6.60618 -6.51758,10.4336 10.97719,1.85825 21.91507,2.85234 33.04492,3.11132 l 3.68164,0.0586 c 9.43443,0.30063 17.94702,-0.63143 27.0918,-2.94141 10.76446,-2.73172 20.75787,-4.0349 31.35156,-4.3125 3.1549,-0.0827 6.34897,-0.0959 9.65039,-0.002 0.003,9e-5 0.005,-8e-5 0.008,0 0.29122,0.007 0.56281,-0.008 0.85547,0 5.2754,0.18436 10.43794,0.33295 15.54492,0.36719 15.60851,0.0626 30.63253,-1.0407 46.16993,-5.93165 12.13237,-4.02572 28.59327,-9.04162 43.0996,-8.5625 5.05826,0.092 9.90607,0.7988 14.25977,2.45704 10.66273,4.46052 20.56686,5.71879 32.06055,5.6582 2.40728,-0.0468 4.81512,-0.0961 7.22265,-0.12305 5.12184,-0.0466 10.24221,-0.11682 15.36328,-0.21484 l 1.30274,-2.60742 -1.30274,-3.91407 -14.33984,-1.30273 c 2.73776,-0.13004 5.47538,-0.2619 8.21289,-0.40039 l 3.35742,-0.17188 3.32422,-0.15429 3.1836,-0.16602 c 3.23781,-0.15972 5.07872,-0.25827 7.99414,-1.71679 v -3.91211 l -29.98243,-1.30469 v -2.60938 c 0.28772,0.003 0.57565,0.004 0.86329,0.006 v -0.006 c 3.15868,0.0269 6.31779,0.0493 9.47656,0.0645 l 3.88476,0.0176 3.82422,0.0332 2.88867,0.01 c 4.13295,0.022 7.67333,-0.26316 11.65235,-1.42773 v -3.91406 c -2.60712,-1.30431 -2.60668,-1.30447 -5.05664,-1.57227 l -2.93946,-0.14453 -2.86523,-0.15039 c -7.60477,-0.36438 -7.60684,-0.36531 -15.21094,-0.74219 l 27.375,-3.91211 v -5.2168 h -34.33398 -0.86133 v -2.60937 c 2.60704,0 2.60675,4.8e-4 6.85352,-0.85547 l 5.04101,-1.09961 c 2.98767,-0.64966 5.97421,-1.30164 8.96094,-1.95703 l -1.30274,-5.2168 h -0.0137 l -0.0117,-0.0547 c -0.88782,-4.28468 -13.35546,-3.89844 -13.35546,-3.89844 l -0.0137,0.0273 c -2.51153,-0.0951 -5.02447,-0.18405 -7.53711,-0.24218 l -3.07226,-0.0664 c -6.01868,-0.24794 -11.148,-0.37644 -16.57227,2.69922 l -4.18359,2.83789 c -2.09321,1.32811 -4.18473,2.66092 -6.27344,3.99609 -10.54169,6.84411 -21.30534,8.18724 -33.66015,8.1211 -0.20017,-0.004 -0.40139,-0.004 -0.60157,-0.008 -0.0899,-3.2e-4 -0.17162,0.008 -0.26172,0.008 -2.63516,-0.0435 -5.27065,-0.0872 -7.90625,-0.10743 -4.7146,-0.0252 -9.42814,-0.0611 -14.14257,-0.11718 -7.66317,-0.0933 -15.32666,-0.18109 -22.99024,-0.23243 -1.667,-0.0104 -3.33313,-0.0221 -5,-0.0351 -9.94556,-0.14688 -19.39191,-0.19653 -29.13086,2.08203 -19.61841,3.41105 -19.61625,3.41052 -39.55664,3.98437 -7.85385,0.20513 -15.72159,0.21001 -23.52539,1.19141 -5.15442,0.75448 -10.3733,1.7053 -15.5332,1.9082 -5.01457,0.28076 -9.97699,-0.12542 -14.76172,-2.20312 -11.79233,-5.49851 -24.57416,-7.37282 -37.44727,-7.40039 -4.17898,0.0179 -8.36504,0.20921 -12.52929,0.55273 -4.16346,1.38857 -7.875,1.57172 -12.23633,1.7168 l -3.3711,0.0918 c -2.35163,0.0683 -4.70293,0.13531 -7.05468,0.20117 -3.711,0.0941 -7.42053,0.19239 -11.13086,0.31054 -2.42255,0.0776 -4.8466,0.14769 -7.26953,0.2129 l -3.4668,0.0898 c -0.27701,0.009 -0.54644,-0.008 -0.82227,0 -5.07806,0.01 -11.4784,0.0965 -11.56445,-0.0176 -3.77434,-4.53682 -3.77641,-4.53866 -6.54297,-9.79101 l -1.4414,-2.75977 c -1.68877,-3.20389 -3.37284,-6.40962 -5.05079,-9.61914 0.37216,-0.86703 0.9746,-1.48925 1.19141,-1.58984 0.10428,0.0654 0.16642,0.13788 0.27149,0.20312 3.1777,1.16908 6.50673,1.4454 9.86328,1.51758 v 0.0664 c 0.71671,0.0225 1.42301,-0.0412 2.13867,-0.0332 0.71553,-0.008 1.42211,0.0557 2.13867,0.0332 v -0.0664 c 1.39456,-0.03 2.78007,-0.13905 4.15625,-0.28906 1.64067,-0.26525 3.26095,-0.64619 4.84375,-1.22852 8.53444,-5.29436 11.97088,-11.26106 15.48047,-20.625 0.91667,-2.68455 1.88057,-5.35426 2.93359,-7.98828 l 2.60547,-1.30469 c 3.10523,-6.93089 4.38386,-12.0107 3.91211,-19.56445 h -1.74414 -0.86328 c 0.0496,-2.36642 0.0957,-4.73283 0.12695,-7.09961 l 0.0352,-2.92578 c 0.11602,-4.98575 0.19732,-9.62185 -1.22656,-14.45508 -4.23608,-7.98725 -10.76606,-14.7021 -18.8711,-18.75 -3.95059,-1.24917 -7.87903,-1.73578 -11.76953,-1.8418 -0.0999,-0.0151 -0.20106,-0.0233 -0.30078,-0.0391 -0.004,-5.3e-4 -0.008,5.2e-4 -0.0117,0 -0.20206,-0.0264 -0.4012,-0.0704 -0.60547,-0.082 z m -86.00391,371.26953 c -0.63287,0.79355 -1.15469,1.63098 -1.72461,2.44922 -8.5e-4,0.002 -9.5e-4,0.005 -0.002,0.006 -1.88131,2.70149 -3.46787,5.52339 -4.92969,8.42773 -1.46183,2.90433 -2.80051,5.89134 -4.18164,8.92578 l -1.93164,4.23828 c -12.35494,27.47309 -12.35495,27.47413 -14.52539,41.65625 -1.9912,11.63839 -10.83664,20.99756 -18.11133,29.86719 -5.03554,6.3365 -9.62385,12.99548 -14.29101,19.60547 -2.33729,3.28799 -4.72541,6.53821 -7.11133,9.79101 l -2.53516,3.51563 c -1.46287,2.02152 -2.94672,4.02828 -4.46093,6.01172 -8.09347,11.11908 -11.71508,24.48793 -16.09961,37.36719 -0.62715,1.84251 -1.25424,3.68524 -1.88282,5.52734 -1.58943,4.65917 -3.1684,9.31975 -4.73047,13.98828 -6.05219,19.6696 -6.05494,19.66964 -20.83007,33.02734 -2.97592,1.37196 -5.97688,2.62638 -9.01758,3.84766 l -3.26758,1.3457 c -6.45916,2.62211 -13.00435,4.93998 -19.5918,7.1543 -0.005,0.002 -0.009,0.005 -0.0137,0.006 -0.005,0.003 -0.0134,0.002 -0.0195,0.004 -3.25148,1.09266 -6.49431,2.20664 -9.7793,3.22851 1.30357,2.6086 1.30495,2.60883 4.625,3.95899 l 4.17578,1.33984 4.13477,1.34961 c 3.78973,1.11154 7.67002,1.87452 11.58594,2.37305 1.78745,0.20085 3.57499,0.39337 5.41992,0.47265 0.007,3e-4 0.0146,0.004 0.0215,0.004 0.003,1.5e-4 0.005,-1.4e-4 0.008,0 1.3814,0.0768 2.7604,0.11809 4.14453,0.12109 0.0177,3e-5 0.0368,-3e-5 0.0547,0 0.39901,6.4e-4 0.79628,-0.0109 1.19531,-0.0156 0.009,-2e-4 0.0178,-0.002 0.0273,-0.002 1.81913,-0.0254 3.63362,-0.10642 5.44727,-0.25781 0.0273,-0.002 0.0547,-0.007 0.082,-0.008 7.86807,-0.6648 15.64455,-2.44729 22.95312,-5.42383 5.29965,-3.94972 6.41691,-8.17621 8.14844,-14.42773 5.26772,-17.30131 17.92755,-29.62541 30.22656,-42.40625 11.70368,-12.21457 20.58845,-23.38661 26.96289,-39.22071 4.81238,-11.92716 9.37276,-20.32244 18.55469,-29.29101 5.16017,-5.65872 8.26063,-12.05519 11.6211,-18.88086 1.87555,-3.71088 3.85548,-6.95047 6.24609,-10.33203 2.20472,-3.48333 2.52734,-4.39523 2.52734,-8.72266 -0.71111,-2.71254 -1.43168,-5.42288 -2.19531,-8.12109 -6.07707,-23.37692 -5.82997,-48.46598 -6.92969,-72.5 z m 170.27735,1.15625 c -1.0422,23.68598 -0.89802,48.33675 -6.87891,71.34375 -0.76363,2.69821 -1.48422,5.40854 -2.19531,8.12109 0,4.32742 0.32262,5.23933 2.52734,8.72266 2.39062,3.38156 4.37053,6.62117 6.2461,10.33203 3.36046,6.82569 6.46091,13.22409 11.62109,18.88281 9.18192,8.96856 13.74231,17.36385 18.55469,29.29102 6.37443,15.83409 15.25922,27.00613 26.96289,39.2207 12.29928,12.78086 24.95884,25.10299 30.22656,42.4043 1.73152,6.25151 2.84683,10.47997 8.14648,14.42968 9.80451,3.99304 20.44421,5.91868 31.0293,5.72266 6.44548,-0.1907 12.86197,-1.17362 19.04883,-2.98828 l 4.13476,-1.34961 4.17579,-1.33984 c 3.32001,-1.35016 3.31948,-1.3504 4.62304,-3.95899 -9.95116,-3.09566 -19.74435,-6.47191 -29.40234,-10.39258 l -3.26758,-1.3457 c -3.04083,-1.22128 -6.04166,-2.47571 -9.01758,-3.84766 -14.77514,-13.35771 -14.77775,-13.35771 -20.83008,-33.02734 -1.56205,-4.66852 -3.14103,-9.3291 -4.73046,-13.98828 -0.62858,-1.8421 -1.25553,-3.68484 -1.88282,-5.52734 -4.38453,-12.87927 -8.00616,-26.24614 -16.09961,-37.36524 -1.51421,-1.98344 -2.99794,-3.99216 -4.46093,-6.01367 l -2.53516,-3.51563 c -2.38592,-3.25279 -4.77404,-6.50302 -7.11133,-9.79101 -4.66716,-6.61001 -9.25547,-13.26896 -14.29101,-19.60547 -7.27469,-8.86963 -16.12013,-18.22879 -18.11133,-29.86719 -2.17044,-14.18214 -2.17045,-14.18312 -14.52539,-41.65625 l -1.9336,-4.23828 c -2.98412,-6.5562 -5.73,-12.9067 -10.02343,-18.65234 z" />
    <g
       id="g2299"
       transform="matrix(1.3035676,0,0,1.3042994,-156.14682,-146.0459)">
      <path
         d="m 0,0 c 16.667119,9.3631603 29.226769,27.630489 40,43 0.592888,0.822825 1.185776,1.645649 1.796631,2.493408 3.79512,5.30499 7.091013,10.683887 10.140869,16.444092 C 60.178083,77.065101 68.459055,87.20096 84,95 c 0,0.33 0,0.66 0,1 -20.166129,2.233092 -40.317834,4.39677 -60.625,4.5 -0.670453,0.01 -1.340907,0.02 -2.031677,0.0303 C -7.2224857,100.88328 -32.89585,87.606051 -53.086426,68.191162 -58.481599,62.905114 -63.253658,57.620248 -67,51 c 3.047541,1.188541 6.052938,2.453326 9.046875,3.769531 1.146621,0.497901 1.146621,0.497901 2.316406,1.00586 1.54745,0.672418 3.091943,1.3517 4.632813,2.039062 13.553039,5.835647 27.639217,8.858756 42.0981138,11.411072 C 7.6017713,72.166221 23.15117,76.172088 38.902344,81.898437 44.203716,83.814596 49.436731,85.115095 55,86 54.321953,85.659688 53.643906,85.319375 52.945312,84.96875 24.458021,70.133263 14.339165,43.122317 5.092041,14.11499 3.7132445,9.8569848 2.0358034,5.999543 0,2 0,1.34 0,0.68 0,0 Z"
         fill="#f9f9f9"
         transform="translate(258,551)"
         id="path24" />
      <path
         d="m 0,0 c 5.4173013,5.1184224 8.5190227,12.482829 12,19 0.336929,0.620845 0.673857,1.241689 1.020996,1.881348 10.644931,19.908459 16.517833,42.57456 22.482452,64.236816 0.205112,0.744756 0.410224,1.489512 0.621552,2.256836 0.203581,0.7396 0.407162,1.479199 0.616913,2.241211 C 40.543183,103.32552 45.516976,115.84888 53,128 7.5140573,115.97935 -40.234451,99.571019 -65.290771,56.554687 -66.894668,53.721712 -68.445956,50.860541 -70,48 c -0.541406,-0.928125 -1.082813,-1.85625 -1.640625,-2.8125 -0.469219,-0.804375 -0.938438,-1.60875 -1.421875,-2.4375 -0.403477,-0.685781 -0.806953,-1.371563 -1.222656,-2.078125 C -74.521055,40.120156 -74.756953,39.568438 -75,39 c 0.33,-0.66 0.66,-1.32 1,-2 0.53625,0.52207 1.0725,1.044141 1.625,1.582031 C -58.620855,51.499164 -42.54656,60.181866 -26,69 c 4.16931,2.225554 8.331097,4.463256 12.479828,6.726929 1.71373,0.929943 3.435805,1.84446 5.1581114,2.758423 C -0.97423379,82.520015 4.9775313,87.138715 11,93 c 1.142203,1.065002 2.286441,2.127831 3.433594,3.1875 0.498625,0.466963 0.997251,0.933926 1.510986,1.415039 C 22.085906,103.35118 28.407908,108.7686 35,114 33.364416,111.77204 31.683177,109.6223 29.90625,107.50391 24.46328,100.85041 20.118519,93.992895 16.125,86.375 15.673184,85.517209 15.221367,84.659419 14.755859,83.775635 1.6854422,58.197257 2.1223168,28.110055 0,0 Z"
         fill="#f9f8f9"
         transform="translate(218,487)"
         id="path26" />
      <path
         d="M 0,0 C 12.200642,21.857075 13.778237,53.030488 14.4375,77.5 14.993155,94.582765 16.686028,110.45613 21,127 16.335075,125.65018 12.729471,123.7394 8.6875,121.0625 7.449342,120.24851 6.211055,119.43472 4.9726562,118.62109 4.325708,118.19296 3.6787598,117.76483 3.012207,117.32373 c -2.73540584,-1.79949 -5.4939809,-3.56189 -8.2517089,-5.3269 -2.8854193,-1.85357 -5.7561931,-3.72915 -8.6257321,-5.60718 -1.397846,-0.90994 -2.80006,-1.81322 -4.207032,-2.70899 C -45.179998,86.410206 -63.661019,61.252588 -71.003906,29.832031 -73.22272,19.668161 -73.22272,19.668161 -72,16 c 0.449883,0.727031 0.899766,1.454062 1.363281,2.203125 C -64.173803,28.305478 -56.49457,36.545248 -48,45 c 0.862383,0.873984 1.724766,1.747969 2.613281,2.648437 5.962705,6.041194 5.962705,6.041194 12.261719,11.726563 1.379667,1.203002 2.754062,2.41206 4.125,3.625 0.953906,0.83918 1.907812,1.678359 2.890625,2.542969 9.462739,8.690182 15.805191,18.850202 22.4287109,29.778808 C -0.95498046,99.665291 2.0090074,103.83634 5,108 4.7430737,107.31075 4.4861475,106.62151 4.2214355,105.91138 3.0352129,102.71474 1.8613348,99.513702 0.6875,96.3125 0.28337891,95.229043 -0.12074219,94.145586 -0.53710938,93.029297 -4.9500765,80.938484 -7.55118,69.718416 -7.4375,56.8125 -7.4321,55.611416 -7.426704,54.410332 -7.421143,53.172852 -7.2124736,40.566938 -5.3133736,28.36757 -3,16 -2.6881327,14.273558 -2.3768871,12.547004 -2.0664063,10.820313 -1.4083443,7.2072736 -0.71815364,3.6016493 0,0 Z"
         fill="#f9f8f9"
         transform="translate(194,428)"
         id="path30" />
      <path
         d="M 0,0 C 1.9105036,2.8657553 2.807993,5.3804473 3.7998047,8.6467285 8.5087305,24.052534 15.949173,38.174551 24.424805,51.830322 30.974465,62.532444 35.256627,74.071293 39.1875,85.9375 c 0.842241,2.531837 1.691242,5.061155 2.542969,7.589844 0.365046,1.100779 0.730093,2.201557 1.106201,3.335693 C 44.016252,100.04382 45.428179,102.99622 47,106 46.783437,105.14664 46.566875,104.29328 46.34375,103.41406 39.790294,73.984192 45.236546,47.848266 59.396729,21.78418 62.198213,16.624977 64.694626,11.399472 67,6 c 0.33,0 0.66,0 1,0 2.719051,26.51075 -1.842413,50.815801 -8.365402,76.409973 -2.851839,11.218183 -4.963454,21.634237 -4.759598,33.277527 0.009,0.99967 0.01805,1.99934 0.02734,3.0293 0.02323,2.428 0.05589,4.85546 0.09766,7.2832 -0.495,-0.68063 -0.99,-1.36125 -1.5,-2.0625 -1.961338,-2.30457 -3.757416,-4.10711 -6.03125,-6.05469 -5.020206,-4.30204 -9.758294,-8.87879 -14.459473,-13.52343 -1.000829,-0.98432 -2.006987,-1.96325 -3.018554,-2.93653 C 11.055939,83.195737 0.12799241,56.799507 -1.1723633,30.516113 -1.230962,26.883486 -1.2243327,23.257864 -1.1875,19.625 -1.1868555,18.393945 -1.18621,17.162891 -1.18555,15.894531 -1.1590673,10.463282 -1.0047031,5.350733 0,0 Z"
         fill="#f9f9f9"
         transform="translate(121,360)"
         id="path38" />
      <path
         d="M 0,0 C 0.66,0 1.32,0 2,0 2.034402,0.54599854 2.068804,1.0919971 2.104248,1.654541 3.1911889,17.871025 5.8432482,33.449007 10.109375,49.136719 12.60717,58.637947 13.808472,68.114481 14.75,77.875 c 0.06512,0.666445 0.130236,1.332891 0.197327,2.019531 C 15.719517,87.948542 16.189686,95.908818 16,104 c 0.66,0 1.32,0 2,0 -0.02191,-1.2852 -0.04383,-2.57039 -0.06641,-3.89453 C 17.973704,70.785107 33.381253,51.636687 53.25,31.6875 54.1575,30.800625 55.065,29.91375 56,29 60.708358,43.043754 46.550412,66.839409 40.405273,79.217773 37.082949,85.795468 33.655451,92.313323 30.174316,98.808105 22.66336,112.21703 22.66336,112.21703 19,127 14.922587,121.93657 12.523052,115.98925 9.8125,110.125 9.5240924,109.50285 9.2356848,108.88069 8.9385376,108.23969 5.1239868,99.980252 1.5130863,91.668969 -1.625,83.125 -1.9307495,82.302739 -2.236499,81.480479 -2.5515137,80.633301 -6.7565981,68.747659 -8.5203724,57.148556 -8.375,44.5625 -8.36557,43.291323 -8.356148,42.020146 -8.346436,40.710449 -8.1130781,26.20882 -4.8672874,13.562995 0,0 Z"
         fill="#f7f7f7"
         transform="translate(139,285)"
         id="path42" />
      <path
         d="M 0,0 C 0.33,0 0.66,0 1,0 0.94376465,0.66322266 0.8875293,1.3264453 0.82958984,2.0097656 0.37669785,7.393644 -0.06292907,12.778232 -0.47955322,18.165024 -2.9842532,50.477418 -2.9842532,50.477418 -5.6118164,65.717285 -6.2007505,69.180514 -6.7359803,72.651873 -7.2773437,76.122803 -7.8435908,79.749817 -8.4217846,83.374876 -9,87 -8.6538867,86.223058 -8.6538867,86.223058 -8.3007813,85.43042 -3.6975056,75.183355 0.84496496,65.733126 8,57 8.6690234,56.142773 9.3380469,55.285547 10.027344,54.402344 18.427364,44.172616 30.972181,36.197284 42,29 37.200566,49.3476 25.533217,64.860182 11.441406,79.765625 2.6827991,89.016448 2.6827991,89.016448 -5.75,98.5625 c -0.7579687,0.888164 -1.5159375,1.77633 -2.296875,2.69141 -2.247468,3.15994 -3.545407,6.14215 -4.953125,9.74609 -2.232155,-3.34823 -2.507583,-5.29786 -3.035156,-9.25 -0.169512,-1.2491 -0.339024,-2.498203 -0.513672,-3.785156 C -16.803096,96.002246 -16.803096,96.002246 -17.0625,94 -17.235879,92.722539 -17.409258,91.445078 -17.587891,90.128906 -22.119969,56.199091 -21.330047,28.085448 0,0 Z"
         fill="#f8f8f8"
         transform="translate(174,228)"
         id="path48" />
      <path
         d="M 0,0 C 0.66,0.33 1.32,0.66 2,1 1.6107031,1.7347656 1.2214062,2.4695313 0.8203125,3.2265625 -4.3205876,13.532053 -7.8727258,24.235356 -11.270996,35.211426 -14.34185,44.863215 -18.083097,53.333577 -25.0625,60.8125 c -0.752812,0.808242 -1.505625,1.616484 -2.28125,2.449219 C -32.496951,68.574063 -37.730211,73.803516 -43,79 -47.315059,66.054823 -37.849904,43.940612 -32,32 -24.840382,18.182283 -13.89371,7.0130158 0,0 Z"
         fill="#f8f8f8"
         transform="translate(222,198)"
         id="path58" />
    </g>
    <g
       id="g2125"
       transform="matrix(1.3035676,0,0,1.3042994,-156.14708,-146.0459)">
      <path
         id="path8"
         d="M -2.1855469,-0.03320312 C -4.3160047,0.00310961 -6.3197109,0.24390697 -8.5507812,0.65625 L -12.3125,1.5 C -14.542757,1.9951033 -16.772289,2.493565 -19,3 c 0,1.999998 -7.31e-4,2.0000031 0.976562,5.0625 2.87883,8.588767 5.010114,17.070238 6.525391,26 L -10.6875,39 -8,55 h -53 c 0,-15.252412 -1.2e-5,-15.252465 -12,-53 h -15 c 0,2.999997 10e-7,3.0000032 1.351562,6.2265625 C -79.140648,30.687786 -79.140636,30.687832 -75,54 h -90 c -0.72078,4.324658 -1.37996,8.659753 -2,13 h 92 c -0.827611,13.241783 -2.044048,25.649698 -4.683594,38.54102 L -80.3125,108.5625 C -82.059348,117.21089 -84.771269,124.6053 -88,133 l -67,1 c 0,2 0,2.00001 4,13 l 57,1 -2,4 c -4.08124,8.8888 -8.66992,17.28943 -13.89062,25.57031 L -112,180.875 c -3.88264,6.11038 -7.80935,11.9955 -12.4375,17.57031 -1.99609,2.30518 -1.9961,2.30518 -3.5625,4.55469 -0.97156,3.23983 -1.19544,4.475 -0.004,7.67578 l 1.44141,2.63672 c 0.84096,1.56964 1.69105,3.13457 2.5625,4.6875 h 2 c 1.30469,-1.40625 1.30469,-1.40625 2.875,-3.5 1.76929,-2.36027 3.51766,-4.73429 5.35156,-7.04492 6.77184,-8.46227 12.7606,-17.34428 18.416018,-26.58203 L -94.25,179.0625 c 2.861797,-4.63315 5.569617,-9.31535 8.25,-14.0625 l 8,-17 56,-1 c -7.431295,18.57824 -15.981066,36.467 -27.636719,52.79297 L -52,203 c -10.156504,13.86577 -22.022967,25.74876 -35,37 l -2.355469,1.96094 -2.207031,1.85156 c -1.919974,1.56457 -3.204213,2.74935 -4.367188,4.93359 -0.0901,2.88834 -0.0901,2.88835 2.330079,7.58203 L -92.5625,258.25 c 1.175583,2.25712 2.36,4.50693 3.5625,6.75 10.804921,-6.09236 21.090788,-14.46193 29.617188,-23.42188 1.252899,-1.35559 2.507029,-2.70934 3.78125,-4.04492 17.400672,-18.16818 31.553353,-38.29265 42.84375,-60.79492 C 13.755101,122.40959 19.097196,57.494749 0,0 -0.75157774,-0.03448923 -1.4753943,-0.04530737 -2.1855469,-0.03320312 Z M -62,67 h 54 c 0,24.086757 -3.291523,43.21468 -9,67 h -56 l 4,-16 c 0.917738,-3.99748 1.820672,-7.99196 2.6875,-12 l 0.642578,-2.90234 0.619141,-2.84766 0.541015,-2.484375 C -62.616406,87.478826 -62.528246,77.564919 -62,67 Z"
         style="fill:#ffffff;fill-opacity:1"
         transform="translate(737,331)" />
      <path
         id="path10"
         d="M 0,0 C -8.5899184,25.038698 -11.882668,52.204093 -11.082031,78.589844 L -11,81 c 0.991752,34.25773 9.9665519,69.6326 25.9375,100.01758 L 16,183 c 15.716709,29.45945 40.539354,66.63914 72,81 L 89.242188,261.76953 90.875,258.8125 C 92.837633,255.27123 94.572502,251.79049 96,248 86.927062,240.99457 77.871614,233.59898 70.3125,224.9375 68.566704,222.85096 66.818544,220.80496 64.964844,218.8125 45.402432,197.83552 33.253306,173.25771 22,147 h 57 c 0.775647,3.87823 1.603859,6.59066 3.320312,10.06055 L 83.3125,159 c 10.55397,20.77972 22.11967,42.34655 38.6875,59 3.58915,-4.29644 6.74513,-8.22611 7,-14 -1.02344,-1.83203 -1.02344,-1.83203 -2.6875,-3.625 -3.04834,-2.97772 -5.52387,-5.94012 -7.88086,-9.46875 L 117.1875,189 c -0.85989,-1.31391 -1.71794,-2.62904 -2.57422,-3.94531 -1.29643,-2.01323 -2.59335,-4.02608 -3.9082,-6.02735 -0.86469,-1.3159 -1.72384,-2.63434 -2.57813,-3.95703 L 106.875,173.125 C 99.869978,160.96154 99.869965,160.96151 94,148 l 56,-1 c 2,-4 2,-4.00001 5,-13 H 88 c -0.891527,-3.12035 -1.765609,-6.24725 -2.730469,-9.3457 C 79.043239,105.37835 76.864724,87.511959 75,67 h 92 c 0,-5.392769 -0.43561,-8.11127 -2,-13 -7.68293,-0.0213 -15.36587,-0.03826 -23.04883,-0.04883 -3.94989,-0.005 -7.89973,-0.0091 -11.84961,-0.01953 C 112.64262,53.88052 95.226727,53.8668 77.785156,54.783202 L 74,55 C 74.895128,51.458386 75.792658,47.922357 76.589844,44.357422 78.850256,33.601213 81.367112,23.095231 85.03125,12.722656 86.308884,9.1151703 87.244322,5.7783879 88,2 H 73 c -2.933695,9.385808 -5.784694,18.787619 -8.162109,28.332031 L 64.1875,33 C 63.350371,36.332511 62.655095,39.617519 62,43 L 61,55 H 9 C 10.894819,42.142301 12.672201,29.343471 15.691406,16.697266 16.702011,12.467044 17.446836,8.3079749 18,4 12.547117,3.3941241 7.4397622,2.106205 2.1601562,0.62109375 Z m 8,67 h 54 l 2,26 c 1.916988,12.55627 5.155448,24.67278 8.496094,36.91602 C 72.999267,132.00049 73,132 73,134 H 18 C 13.278369,119.83511 10.194879,105.24304 8.6875,90.375 L 8.4570312,88.123047 C 7.8356348,81.03415 8,74.188533 8,67 Z"
         style="fill:#ffffff;fill-opacity:1"
         transform="translate(287,331)" />
      <path
         d="M 0,0 C 1.0681746,0.24061157 1.0681746,0.24061157 2.1579285,0.48608398 37.872659,8.6326648 80.748272,29.536921 105.5,57.1875 c 0,0.66 0,1.32 0,2 -2.55887,1.320026 -5.12167,2.631138 -7.6875,3.9375 -0.72123,0.373184 -1.442461,0.746367 -2.185547,1.130859 C 87.85872,68.193183 87.85872,68.193183 84.5,68.1875 82.046875,66.625 82.046875,66.625 79.25,64.1875 35.249842,27.903763 -25.685033,11.40978 -81.953125,16.71875 -87.829797,17.372078 -93.666619,18.224859 -99.5,19.1875 c -0.88655,0.144536 -1.77311,0.289072 -2.68652,0.437988 -5.82352,0.980723 -11.57677,2.160032 -17.31348,3.562012 -0.6853,0.167417 -1.3706,0.334834 -2.07666,0.507324 -23.00131,5.964547 -46.73713,18.664034 -65.92334,32.492676 -2.35079,1.678775 -4.70256,3.356113 -7.05664,5.030273 -1.5083,1.078172 -3.01002,2.16562 -4.50391,3.263672 -0.66838,0.484366 -1.33675,0.968731 -2.02539,1.467774 -0.88244,0.649083 -0.88244,0.649083 -1.78271,1.311279 C -204.5,68.1875 -204.5,68.1875 -207.5,68.1875 c -1.99292,-0.826172 -1.99292,-0.826172 -4.23047,-1.96875 -1.20366,-0.609082 -1.20366,-0.609082 -2.43164,-1.230469 -1.25007,-0.643886 -1.25007,-0.643886 -2.52539,-1.300781 -0.84498,-0.429258 -1.68996,-0.858516 -2.56055,-1.300781 -2.08678,-1.061074 -4.17055,-2.127645 -6.25195,-3.199219 3.52822,-4.516385 7.19007,-7.987566 11.75,-11.4375 0.6227,-0.478806 1.2454,-0.957612 1.88696,-1.450928 1.23465,-0.94932 2.471,-1.896422 3.70923,-2.841064 2.05604,-1.579511 4.07057,-3.208715 6.09131,-4.833008 3.86978,-2.997815 7.87969,-5.765421 11.9375,-8.5 0.58838,-0.39969 1.17675,-0.79938 1.78296,-1.211182 9.26935,-6.164088 19.20357,-10.977691 29.3479,-15.513427 1.86412,-0.835642 3.72208,-1.684031 5.58008,-2.533203 16.00977,-7.2393661 32.77344,-11.11416698 49.91406,-14.679688 0.88204,-0.1851416 1.76408,-0.3702832 2.67285,-0.5610352 C -67.767646,-10.95525 -32.521134,-7.4120737 0,0 Z"
         fill="#fafafa"
         id="path14"
         transform="translate(571.5,165.8125)" />
      <path
         d="m 0,0 c 20.700274,5.3438206 49.373129,13.44854 64,30 -1.739581,1.202711 -3.492097,2.38673 -5.25,3.5625 -0.974531,0.661289 -1.949062,1.322578 -2.953125,2.003906 C 53,37 53,37 51.109131,36.73999 48.724925,35.90349 46.660567,34.831809 44.457031,33.59375 31.03211,26.225827 17.585034,20.54545 3.043457,15.749268 1,15 1,15 0,14 -0.07271741,11.646864 -0.08370868,9.2916633 -0.0625,6.9375 -0.05347656,5.6471484 -0.04445313,4.3567969 -0.03515625,3.0273438 -0.02355469,2.0283203 -0.01195312,1.0292969 0,0 Z"
         fill="#f6f6f6"
         transform="translate(552,228)"
         id="path66" />
      <path
         d="m 0,0 c 0,4.29 0,8.58 0,13 -1.7286328,0.605859 -3.4572656,1.211719 -5.2382812,1.835938 C -27.878243,22.630137 -27.878243,22.630137 -48.363281,34.816406 -49.173457,35.402285 -49.173457,35.402285 -50,36 c -4.579888,-1.017753 -9.293185,-4.130208 -13,-7 0,-0.66 0,-1.32 0,-2 2.280373,-1.651199 4.543607,-3.153238 6.9375,-4.625 0.724373,-0.445854 1.448745,-0.891709 2.195068,-1.351074 C -39.040514,12.074417 -17.61516,0 0,0 Z"
         fill="#f5f5f5"
         transform="translate(471,229)"
         id="path68" />
      <path
         d="M 0,0 C 1.71875,2.5820313 1.71875,2.5820313 3.5,5.8125 5.4901787,9.3956946 7.4483594,12.787111 10,16 c -11.5688504,4.363469 -23.15362,8.454256 -35,12 0.471243,-2.636953 0.950644,-5.271111 1.453125,-7.902344 0.346203,-1.96099 0.635004,-3.933718 0.84375,-5.914062 0.799528,-6.3867028 0.799528,-6.3867028 3.257813,-8.5546878 C -17.337023,4.5408934 -15.244478,3.7679453 -13,3 -12.127305,2.6197266 -11.254609,2.2394531 -10.355469,1.8476562 -3.4567186,-1.1522395 -3.4567186,-1.1522395 0,0 Z"
         fill="#f6f6f6"
         id="path74"
         transform="translate(588,609)" />
      <path
         d="M 0,0 C 1.6483269,0.40669001 3.2935301,0.82604069 4.9375,1.25 5.8540234,1.4820312 6.7705469,1.7140625 7.7148437,1.953125 8.7989453,2.2985938 9.8830469,2.6440625 11,3 c 0.758049,0.2117285 1.516099,0.423457 2.297119,0.6416016 6.061969,2.0705665 6.061969,2.0705665 7.796875,5.5566406 0.690457,2.6862158 1.123597,5.3001898 1.468506,8.0517578 0.225264,1.403789 0.225264,1.403789 0.455078,2.835937 C 23.381623,22.387642 23.707378,24.688315 24,27 16.594111,25.52038 9.580198,23.31187 2.4375,20.875 1.333418,20.502461 0.22933594,20.129922 -0.90820312,19.746094 -3.6068937,18.834848 -6.3040803,17.919405 -9,17 -9,12.784754 -6.7637741,10.201363 -4.5,6.8125 -4.0707422,6.1583008 -3.6414844,5.5041016 -3.1992188,4.8300781 -2.1388996,3.2160368 -1.0702385,1.6074812 0,0 Z"
         fill="#f7f7f7"
         id="path76"
         transform="translate(437,609)" />
    </g>
    <g
       id="g2268"
       transform="matrix(1.3035676,0,0,1.3042994,-156.14702,-146.0459)">
      <path
         d="m 0,0 c 3.0733985,2.0249043 5.3652104,3.8293061 6.8320312,7.2070312 0.9956277,5.7942268 0.9318322,11.2020678 -2.0625,16.3749998 -8.0798678,10.901051 -19.0576562,14.951987 -32.0703122,16.945313 -3.532405,0.506727 -7.069776,0.968382 -10.609375,1.421875 l -2.958008,0.384277 c -1.906779,0.24352 -3.81499,0.476153 -5.724609,0.696289 -5.36734,0.668715 -9.784145,1.611959 -14.575196,4.177246 -2.28296,2.841302 -2.28296,2.841302 -2.0625,6.1875 1.71333,6.147832 5.666198,10.282945 11,13.6875 l 2.0625,1.125 v 2 c -1.863281,1.472656 -1.863281,1.472656 -4.3125,3.0625 l -2.425781,1.597656 c -2.261719,1.339844 0.334663,5.28e-4 -2.665337,1.000528 l -2.596382,-0.660684 -1.777343,-0.769531 c -4.952102,-2.741498 -8.271202,-7.665172 -11.160157,-12.417969 -1.850474,-6.639937 -2.581981,-13.213473 0.15625,-19.699219 5.482879,-8.65105 12.733405,-11.555888 22.40625,-13.800781 5.128084,-0.996663 10.25315,-1.706892 15.4375,-2.3125 16.944703,-1.948507 16.944703,-1.948507 30.9375003,-11 0.52843,-1.333333 1.3950252,-2.666667 0,-4 C -8.5411299,10.388804 -10.916263,9.5773442 -13.292969,8.7695313 L -15.308594,8.0722656 C -19.24662,6.7402861 -23.030023,5.7677809 -27.167969,5.2070312 -20.599273,-5.0744055 -9.8652719,-5.5066508 0,0 Z"
         fill="#f8f8f8"
         id="path50"
         transform="translate(554.16797,721.79297)"
         sodipodi:nodetypes="ccccccccccccccccccccccccccc" />
      <path
         d="M 0,0 2.5390625,-0.0625 C 7.6559278,-0.09468154 11.208521,0.36817783 15.625,3.25 c 1.960316,2.1105071 4,3.5219075 4,6 L 16.46875,9.4765625 C 5.6710564,10.406216 -3.4839141,12.855138 -13.375,17.25 l -3.023437,1.339844 C -24.270507,22.480766 -30.123482,28.218296 -36.375,34.25 -48.596756,45.750257 -60.070455,51.094663 -76.828125,50.613281 -83.455462,50.229432 -91.550352,49.074648 -96.375,44.25 l 1.769043,-0.379639 C -74.74286,39.546755 -62.212281,32.466115 -46.75,19.5625 -33.292285,8.5604312 -17.637133,0.1075435 0,0 Z"
         fill="#f8f8f8"
         id="path54"
         transform="translate(479.375,680.75)"
         sodipodi:nodetypes="ccccccccccccc" />
      <path
         id="path56"
         d="M -9.4296875,-2.9355469 C -12.468866,-2.9934667 -15.593971,-2.3121153 -19.375,-1.4375 v 2 c 3.457787,1.1525957 5.391105,2.4616158 8,5 0.474972,2.7141236 0.189661,4.3930846 -0.625,7 -3.307416,4.810787 -7.804758,7.436168 -13.085938,9.572266 L -27.125,22.9375 c -8.493083,3.541385 -18.39843,7.69636 -22.25,16.625 -0.741049,4.887767 -0.713821,8.654722 1.625,13.0625 2.82083,2.301204 4.781543,2.692492 8.375,2.9375 2.951728,0.201254 -2.228195,-10.462972 -2,-11 0.687701,-0.739933 0.666517,-0.664799 1,-1 4.937881,-4.684026 9.978099,-6.88879 16.3125,-9.25 1.809349,-0.690727 3.617989,-1.383334 5.425781,-2.078125 l 2.408203,-0.902344 c 1.835434,-0.622251 1.790287,-0.578837 3.238467,-1.310809 2.296175,-1.334114 3.3068398,-2.200091 4.3220802,-3.001691 C -3.7633579,23.188657 -0.07325426,19.676215 1.625,13.5625 2.280207,8.6484476 2.7164554,4.2836412 0,0 -3.4372394,-2.0804344 -6.3905094,-2.877627 -9.4296875,-2.9355469 Z"
         style="fill:#ffffff;fill-opacity:1"
         transform="translate(541.375,768.4375)"
         sodipodi:nodetypes="sccccccccscccccccccs" />
      <path
         d="m 0,0 c 3.5102182,4.2624078 3.2684272,7.7209317 3,13 -7.0807625,0.408506 -13.19926,-1.095793 -20,-3 -2.766378,3.303468 -3.385748,5.542962 -3.59375,9.902344 0.973664,3.439854 2.831519,4.887872 5.59375,7.097656 2.71284,1.095743 5.4521465,1.722025 8.3125,2.3125 0.7405664,0.168223 1.4811328,0.336445 2.2441406,0.509766 C -2.6325148,30.231166 -0.81668379,30.617877 1,31 c 0,0.66 0,1.32 0,2 -1.74951568,0.959217 -3.4996324,1.917338 -5.25,2.875 -0.9745312,0.533672 -1.9490625,1.067344 -2.953125,1.617187 C -8.1260938,37.989766 -9.0490625,38.487344 -10,39 c -0.667734,0.455039 -1.335469,0.910078 -2.023438,1.378906 C -14,41 -14,41 -16.585937,39.910156 -22.786887,35.802244 -28.580614,31.838771 -32,25 c -0.149439,-2.267443 -0.221449,-4.540318 -0.25,-6.8125 -0.02578,-1.22332 -0.05156,-2.446641 -0.07813,-3.707031 C -31.849197,9.4004111 -29.93738,6.9602433 -26.4375,3.375 -19.528858,-2.0458901 -7.8256121,-4.7052731 0,0 Z"
         fill="#f7f7f7"
         id="path70"
         transform="translate(493,715)" />
      <path
         d="M 0,0 C 3.5,0.4375 3.5,0.4375 5.375,1.8125 7.7216767,5.2021441 7.5633911,7.3930291 7.4140625,11.492188 7.3708789,12.737905 7.3276953,13.983623 7.2832031,15.26709 7.2307487,16.615571 7.1780087,17.964041 7.125,19.3125 7.074601,20.680491 7.0244719,22.048493 6.9746094,23.416504 6.6853205,31.21655 6.3689576,39.015804 6,46.8125 5.9647119,47.581909 5.9294238,48.351318 5.8930664,49.144043 5.6479684,53.948605 5.1457295,58.669864 4.5,63.4375 c -4.95,0.495 -4.95,0.495 -10,1 -0.8691731,-12.147199 -1.215201,-24.25664 -1.2402344,-36.434326 -0.00991,-2.919947 -0.041155,-5.839245 -0.072266,-8.759033 -0.00651,-1.869137 -0.011771,-3.738278 -0.015625,-5.607422 -0.012347,-0.866598 -0.024694,-1.733195 -0.037414,-2.626053 0.013171,-3.5362224 0.040912,-5.937854 1.6672973,-9.1207734 C -3.5,0.4375 -3.5,0.4375 0,0 Z"
         fill="#f9f9f9"
         id="path72"
         transform="translate(511.5,680.5625)" />
      <path
         d="m 0,0 c 0,5.94 0,11.88 0,18 -1.98,0.99 -3.96,1.98 -6,3 -0.99,-0.33 -1.98,-0.66 -3,-1 0,-6.27 0,-12.54 0,-19 5,-1 5,-1 9,-1 z"
         fill="#f8f8f8"
         id="path106"
         transform="translate(516,768)" />
      <path
         d="m 0,0 c 0.12694603,8.0439454 -0.23777638,15.982395 -0.875,24 -0.11794922,1.676426 -0.11794922,1.676426 -0.2382812,3.386719 -0.1256836,1.602949 -0.1256836,1.602949 -0.2539063,3.238281 -0.073315,0.961641 -0.1466309,1.923281 -0.222168,2.914062 C -2,36 -2,36 -4,39 -6.070014,30.918311 -6.2406534,23.184253 -6.125,14.875 -6.11598,13.632344 -6.106953,12.389688 -6.097656,11.109375 -6.0742973,8.07271 -6.0415428,5.0364615 -6,2 -1.125,0 -1.125,0 0,0 Z"
         fill="#f4f4f4"
         id="path108"
         transform="translate(515,809)" />
      <path
         d="M 0,0 C 3.7738182,0.52414142 6.4915351,1.0270046 9,4 9.7703102,7.166831 9.8560405,9.8464572 9,13 6.9412396,15.222235 4.6897583,16.634536 2,18 1.34,17.67 0.68,17.34 0,17 0.495,16.29875 0.99,15.5975 1.5,14.875 3.2363575,11.546981 3.5631177,9.7004875 3,6 1.1192213,4.0874329 1.1192213,4.0874329 -1,3 -0.67,2.01 -0.34,1.02 0,0 Z"
         fill="#f8f8f8"
         id="path166"
         transform="translate(521,807)" />
      <path
         d="m 544.625,680.75 -2.53906,-0.0625 C 536.96907,680.6553 533.41648,681.11818 529,684 c -1.96032,2.11051 -4,3.52191 -4,6 l 3.15625,0.22656 C 538.95394,691.15622 548.10891,693.60514 558,698 l 3.02344,1.33984 C 568.89551,703.23077 574.74848,708.9683 581,715 c 12.22176,11.50026 23.69545,16.84466 40.45312,16.36328 C 628.08046,730.97943 636.17535,729.82465 641,725 l -1.76904,-0.37964 C 619.36786,720.29675 606.83728,713.21611 591.375,700.3125 577.91728,689.31043 562.26213,680.85754 544.625,680.75 Z"
         fill="#f8f8f8"
         id="path1006"
         sodipodi:nodetypes="ccccccccccccc" />
    </g>
    <g
       id="g986"
       transform="matrix(-1.3035676,0,0,1.3042994,1176.1468,-146.0459)">
      <path
         d="m 0,0 c 16.667119,9.3631603 29.226769,27.630489 40,43 0.592888,0.822825 1.185776,1.645649 1.796631,2.493408 3.79512,5.30499 7.091013,10.683887 10.140869,16.444092 C 60.178083,77.065101 68.459055,87.20096 84,95 c 0,0.33 0,0.66 0,1 -20.166129,2.233092 -40.317834,4.39677 -60.625,4.5 -0.670453,0.01 -1.340907,0.02 -2.031677,0.0303 C -7.2224857,100.88328 -32.89585,87.606051 -53.086426,68.191162 -58.481599,62.905114 -63.253658,57.620248 -67,51 c 3.047541,1.188541 6.052938,2.453326 9.046875,3.769531 1.146621,0.497901 1.146621,0.497901 2.316406,1.00586 1.54745,0.672418 3.091943,1.3517 4.632813,2.039062 13.553039,5.835647 27.639217,8.858756 42.0981138,11.411072 C 7.6017713,72.166221 23.15117,76.172088 38.902344,81.898437 44.203716,83.814596 49.436731,85.115095 55,86 54.321953,85.659688 53.643906,85.319375 52.945312,84.96875 24.458021,70.133263 14.339165,43.122317 5.092041,14.11499 3.7132445,9.8569848 2.0358034,5.999543 0,2 0,1.34 0,0.68 0,0 Z"
         fill="#f9f9f9"
         transform="translate(258,551)"
         id="path972" />
      <path
         d="m 0,0 c 5.4173013,5.1184224 8.5190227,12.482829 12,19 0.336929,0.620845 0.673857,1.241689 1.020996,1.881348 10.644931,19.908459 16.517833,42.57456 22.482452,64.236816 0.205112,0.744756 0.410224,1.489512 0.621552,2.256836 0.203581,0.7396 0.407162,1.479199 0.616913,2.241211 C 40.543183,103.32552 45.516976,115.84888 53,128 7.5140573,115.97935 -40.234451,99.571019 -65.290771,56.554687 -66.894668,53.721712 -68.445956,50.860541 -70,48 c -0.541406,-0.928125 -1.082813,-1.85625 -1.640625,-2.8125 -0.469219,-0.804375 -0.938438,-1.60875 -1.421875,-2.4375 -0.403477,-0.685781 -0.806953,-1.371563 -1.222656,-2.078125 C -74.521055,40.120156 -74.756953,39.568438 -75,39 c 0.33,-0.66 0.66,-1.32 1,-2 0.53625,0.52207 1.0725,1.044141 1.625,1.582031 C -58.620855,51.499164 -42.54656,60.181866 -26,69 c 4.16931,2.225554 8.331097,4.463256 12.479828,6.726929 1.71373,0.929943 3.435805,1.84446 5.1581114,2.758423 C -0.97423379,82.520015 4.9775313,87.138715 11,93 c 1.142203,1.065002 2.286441,2.127831 3.433594,3.1875 0.498625,0.466963 0.997251,0.933926 1.510986,1.415039 C 22.085906,103.35118 28.407908,108.7686 35,114 33.364416,111.77204 31.683177,109.6223 29.90625,107.50391 24.46328,100.85041 20.118519,93.992895 16.125,86.375 15.673184,85.517209 15.221367,84.659419 14.755859,83.775635 1.6854422,58.197257 2.1223168,28.110055 0,0 Z"
         fill="#f9f8f9"
         transform="translate(218,487)"
         id="path974" />
      <path
         d="M 0,0 C 12.200642,21.857075 13.778237,53.030488 14.4375,77.5 14.993155,94.582765 16.686028,110.45613 21,127 16.335075,125.65018 12.729471,123.7394 8.6875,121.0625 7.449342,120.24851 6.211055,119.43472 4.9726562,118.62109 4.325708,118.19296 3.6787598,117.76483 3.012207,117.32373 c -2.73540584,-1.79949 -5.4939809,-3.56189 -8.2517089,-5.3269 -2.8854193,-1.85357 -5.7561931,-3.72915 -8.6257321,-5.60718 -1.397846,-0.90994 -2.80006,-1.81322 -4.207032,-2.70899 C -45.179998,86.410206 -63.661019,61.252588 -71.003906,29.832031 -73.22272,19.668161 -73.22272,19.668161 -72,16 c 0.449883,0.727031 0.899766,1.454062 1.363281,2.203125 C -64.173803,28.305478 -56.49457,36.545248 -48,45 c 0.862383,0.873984 1.724766,1.747969 2.613281,2.648437 5.962705,6.041194 5.962705,6.041194 12.261719,11.726563 1.379667,1.203002 2.754062,2.41206 4.125,3.625 0.953906,0.83918 1.907812,1.678359 2.890625,2.542969 9.462739,8.690182 15.805191,18.850202 22.4287109,29.778808 C -0.95498046,99.665291 2.0090074,103.83634 5,108 4.7430737,107.31075 4.4861475,106.62151 4.2214355,105.91138 3.0352129,102.71474 1.8613348,99.513702 0.6875,96.3125 0.28337891,95.229043 -0.12074219,94.145586 -0.53710938,93.029297 -4.9500765,80.938484 -7.55118,69.718416 -7.4375,56.8125 -7.4321,55.611416 -7.426704,54.410332 -7.421143,53.172852 -7.2124736,40.566938 -5.3133736,28.36757 -3,16 -2.6881327,14.273558 -2.3768871,12.547004 -2.0664063,10.820313 -1.4083443,7.2072736 -0.71815364,3.6016493 0,0 Z"
         fill="#f9f8f9"
         transform="translate(194,428)"
         id="path976" />
      <path
         d="M 0,0 C 1.9105036,2.8657553 2.807993,5.3804473 3.7998047,8.6467285 8.5087305,24.052534 15.949173,38.174551 24.424805,51.830322 30.974465,62.532444 35.256627,74.071293 39.1875,85.9375 c 0.842241,2.531837 1.691242,5.061155 2.542969,7.589844 0.365046,1.100779 0.730093,2.201557 1.106201,3.335693 C 44.016252,100.04382 45.428179,102.99622 47,106 46.783437,105.14664 46.566875,104.29328 46.34375,103.41406 39.790294,73.984192 45.236546,47.848266 59.396729,21.78418 62.198213,16.624977 64.694626,11.399472 67,6 c 0.33,0 0.66,0 1,0 2.719051,26.51075 -1.842413,50.815801 -8.365402,76.409973 -2.851839,11.218183 -4.963454,21.634237 -4.759598,33.277527 0.009,0.99967 0.01805,1.99934 0.02734,3.0293 0.02323,2.428 0.05589,4.85546 0.09766,7.2832 -0.495,-0.68063 -0.99,-1.36125 -1.5,-2.0625 -1.961338,-2.30457 -3.757416,-4.10711 -6.03125,-6.05469 -5.020206,-4.30204 -9.758294,-8.87879 -14.459473,-13.52343 -1.000829,-0.98432 -2.006987,-1.96325 -3.018554,-2.93653 C 11.055939,83.195737 0.12799241,56.799507 -1.1723633,30.516113 -1.230962,26.883486 -1.2243327,23.257864 -1.1875,19.625 -1.1868555,18.393945 -1.18621,17.162891 -1.18555,15.894531 -1.1590673,10.463282 -1.0047031,5.350733 0,0 Z"
         fill="#f9f9f9"
         transform="translate(121,360)"
         id="path978" />
      <path
         d="M 0,0 C 0.66,0 1.32,0 2,0 2.034402,0.54599854 2.068804,1.0919971 2.104248,1.654541 3.1911889,17.871025 5.8432482,33.449007 10.109375,49.136719 12.60717,58.637947 13.808472,68.114481 14.75,77.875 c 0.06512,0.666445 0.130236,1.332891 0.197327,2.019531 C 15.719517,87.948542 16.189686,95.908818 16,104 c 0.66,0 1.32,0 2,0 -0.02191,-1.2852 -0.04383,-2.57039 -0.06641,-3.89453 C 17.973704,70.785107 33.381253,51.636687 53.25,31.6875 54.1575,30.800625 55.065,29.91375 56,29 60.708358,43.043754 46.550412,66.839409 40.405273,79.217773 37.082949,85.795468 33.655451,92.313323 30.174316,98.808105 22.66336,112.21703 22.66336,112.21703 19,127 14.922587,121.93657 12.523052,115.98925 9.8125,110.125 9.5240924,109.50285 9.2356848,108.88069 8.9385376,108.23969 5.1239868,99.980252 1.5130863,91.668969 -1.625,83.125 -1.9307495,82.302739 -2.236499,81.480479 -2.5515137,80.633301 -6.7565981,68.747659 -8.5203724,57.148556 -8.375,44.5625 -8.36557,43.291323 -8.356148,42.020146 -8.346436,40.710449 -8.1130781,26.20882 -4.8672874,13.562995 0,0 Z"
         fill="#f7f7f7"
         transform="translate(139,285)"
         id="path980" />
      <path
         d="M 0,0 C 0.33,0 0.66,0 1,0 0.94376465,0.66322266 0.8875293,1.3264453 0.82958984,2.0097656 0.37669785,7.393644 -0.06292907,12.778232 -0.47955322,18.165024 -2.9842532,50.477418 -2.9842532,50.477418 -5.6118164,65.717285 -6.2007505,69.180514 -6.7359803,72.651873 -7.2773437,76.122803 -7.8435908,79.749817 -8.4217846,83.374876 -9,87 -8.6538867,86.223058 -8.6538867,86.223058 -8.3007813,85.43042 -3.6975056,75.183355 0.84496496,65.733126 8,57 8.6690234,56.142773 9.3380469,55.285547 10.027344,54.402344 18.427364,44.172616 30.972181,36.197284 42,29 37.200566,49.3476 25.533217,64.860182 11.441406,79.765625 2.6827991,89.016448 2.6827991,89.016448 -5.75,98.5625 c -0.7579687,0.888164 -1.5159375,1.77633 -2.296875,2.69141 -2.247468,3.15994 -3.545407,6.14215 -4.953125,9.74609 -2.232155,-3.34823 -2.507583,-5.29786 -3.035156,-9.25 -0.169512,-1.2491 -0.339024,-2.498203 -0.513672,-3.785156 C -16.803096,96.002246 -16.803096,96.002246 -17.0625,94 -17.235879,92.722539 -17.409258,91.445078 -17.587891,90.128906 -22.119969,56.199091 -21.330047,28.085448 0,0 Z"
         fill="#f8f8f8"
         transform="translate(174,228)"
         id="path982" />
      <path
         d="M 0,0 C 0.66,0.33 1.32,0.66 2,1 1.6107031,1.7347656 1.2214062,2.4695313 0.8203125,3.2265625 -4.3205876,13.532053 -7.8727258,24.235356 -11.270996,35.211426 -14.34185,44.863215 -18.083097,53.333577 -25.0625,60.8125 c -0.752812,0.808242 -1.505625,1.616484 -2.28125,2.449219 C -32.496951,68.574063 -37.730211,73.803516 -43,79 -47.315059,66.054823 -37.849904,43.940612 -32,32 -24.840382,18.182283 -13.89371,7.0130158 0,0 Z"
         fill="#f8f8f8"
         transform="translate(222,198)"
         id="path984" />
    </g>
  </g>
</svg>
