<?xml version="1.0" encoding="UTF-8" standalone="no"?>
<svg
   version="1.1"
   viewBox="0 0 1025 1025"
   id="svg52"
   sodipodi:docname="WHO Logo.svg"
   inkscape:version="1.2.2 (732a01da63, 2022-12-09)"
   width="1025"
   height="1025"
   xmlns:inkscape="http://www.inkscape.org/namespaces/inkscape"
   xmlns:sodipodi="http://sodipodi.sourceforge.net/DTD/sodipodi-0.dtd"
   xmlns="http://www.w3.org/2000/svg"
   xmlns:svg="http://www.w3.org/2000/svg">
  <defs
     id="defs56" />
  <sodipodi:namedview
     id="namedview54"
     pagecolor="#505050"
     bordercolor="#eeeeee"
     borderopacity="1"
     inkscape:showpageshadow="0"
     inkscape:pageopacity="0"
     inkscape:pagecheckerboard="0"
     inkscape:deskcolor="#505050"
     showgrid="false"
     inkscape:zoom="0.5127551"
     inkscape:cx="238.90547"
     inkscape:cy="341.29353"
     inkscape:window-width="1920"
     inkscape:window-height="1009"
     inkscape:window-x="-8"
     inkscape:window-y="-8"
     inkscape:window-maximized="1"
     inkscape:current-layer="g50" />
  <g
     fill="#009edb"
     id="g50">
    <path
       d="m 512.04521,59.3765 c -45.28718,0 -26.16593,67.4276 -22.64359,89.568 0,1.00638 3.52234,152.46688 4.52872,187.18705 7.04467,-2.01276 13.58615,-3.52233 20.63083,-5.03191 l 13.58615,-3.52233 c 0.5032,-33.7138 4.02553,-178.12962 4.02553,-179.136 C 535.192,125.29452 558.84197,59.3765 512.04521,59.3765 m -12.57977,513.25483 c 5.03191,-1.50958 10.06382,-3.52234 14.59254,-4.52872 3.52233,-1.00638 6.54148,-2.01277 10.06382,-3.01915 0,-9.56063 3.01914,-144.41582 3.52233,-168.56898 -10.56701,2.51595 -21.13402,5.5351 -31.19784,9.05744 0.50319,18.11487 3.01915,152.46687 3.01915,167.05941 m 17.61168,50.31909 c -1.50957,0.50319 -6.03829,2.51596 -9.05743,3.52234 -3.01915,1.00638 -6.54149,2.51595 -6.54149,3.52234 0,0 3.01915,154.98283 3.01915,158.00198 0,31.70103 16.10211,32.20422 16.10211,0 0,-2.01276 3.52234,-167.56261 3.52234,-167.56261 0,0 -4.52872,1.50957 -7.04468,2.51595 M 479.84099,191.21254 c -12.07658,4.02553 -24.15316,8.55425 -35.72656,14.59254 -12.57977,4.02553 -30.69465,5.03191 -49.31271,25.15955 -6.03829,7.04467 -11.57339,14.59254 -17.10849,22.1404 -5.53511,8.05107 -6.0383,21.13403 -10.06382,27.67552 -6.0383,10.06381 -4.52872,16.10211 -4.52872,16.10211 -1.00638,4.52872 -3.52234,9.05743 -6.54149,12.57977 -6.03829,7.04467 -15.09572,10.56701 -24.15316,9.05744 8.55424,4.02553 20.12764,-1.50957 20.12764,-1.50957 -2.01277,5.5351 -3.52234,11.0702 -4.52872,16.6053 9.56063,-21.63721 18.11487,-29.18508 21.13402,-31.70103 4.02553,1.00638 12.57977,0.50319 28.17869,-8.55425 17.61169,-10.06382 44.28081,-26.66912 51.82867,-37.23613 8.05106,-10.56702 18.61807,-19.12127 31.19784,-23.64999 0,-15.09573 -0.50319,-29.18507 -0.50319,-41.26166 m -74.47226,66.92441 -9.05744,2.01277 11.0702,-18.11489 12.57978,0.50319 -14.59254,15.59893 m 54.34462,369.84538 c 0,20.12765 14.59254,30.69466 29.18508,39.24891 0,-3.52234 -0.50319,-34.217 -0.50319,-34.72019 0.50319,-6.03829 6.03829,-10.06382 11.0702,-12.07658 7.54786,-3.52234 15.59892,-6.54148 23.64997,-9.05744 4.52872,-1.50957 8.05106,-3.01914 12.07659,-4.02553 29.68827,-9.05743 63.90525,-20.12764 63.90525,-56.35739 0,-36.22974 -29.18508,-50.82229 -61.3893,-61.89249 -0.50319,11.57339 -0.50319,28.1787 -1.00638,39.75209 13.58616,5.03191 22.64359,11.57339 22.64359,22.1404 0,13.08297 -13.58615,20.12764 -23.64997,24.15317 -4.02553,1.50957 -10.06382,3.52234 -12.07658,4.02553 -8.05106,2.51595 -16.10212,5.03191 -24.15317,8.05105 -4.02553,1.50958 -8.05106,3.01915 -12.07658,5.03191 -13.08297,7.04468 -27.67551,17.61169 -27.67551,35.72656 M 652.93868,279.27097 c 0,-36.73295 -26.66912,-76.98823 -91.58075,-91.07757 -6.54148,-1.00638 -13.08297,-2.01277 -19.62445,-2.51596 0,5.5351 -0.50319,18.11488 -0.50319,18.11488 0,4.02553 -0.50319,18.61806 -0.50319,21.63721 4.02553,0.50319 8.55425,1.00638 12.57977,1.50957 37.73933,9.05744 51.32548,30.69466 51.32548,51.82868 0,34.72018 -29.68827,47.80314 -65.91802,57.86696 l -12.07658,3.01915 c -11.0702,2.51595 -22.64359,5.5351 -33.71379,8.55425 -4.02553,1.00638 -8.05106,2.01276 -12.07659,3.52233 -40.25527,12.07659 -74.97545,31.70104 -74.97545,81.51695 0,49.8159 39.75209,67.93078 78.49779,80.00737 0,-14.08935 -0.50319,-28.68189 -1.00638,-42.77124 -17.61169,-8.05106 -29.18508,-18.61807 -29.18508,-36.22975 0,-17.61168 11.0702,-27.6755 27.67551,-35.22337 3.52233,-1.50957 7.54786,-3.01914 12.07658,-4.52872 9.56063,-3.52233 20.63083,-6.03829 31.70103,-9.05743 l 12.07658,-3.01916 C 592.05258,369.34216 653.44188,352.23366 652.93868,279.27097 M 532.17285,688.36526 c 18.11488,9.05744 35.22337,22.1404 42.26804,46.29357 3.01915,-40.25528 -19.62444,-57.36377 -41.76485,-69.44036 l -0.50319,23.14679 M 834.08743,225.42953 c 19.62445,23.64997 53.84144,37.23614 73.96907,60.88612 -14.59253,-69.44037 -67.93078,-126.30095 -131.33284,-139.88711 31.19784,23.14679 37.73932,55.35101 57.36377,79.00099 M 74.269072,401.54639 C 118.04669,306.44328 182.95832,326.57092 210.63382,236.49973 194.53171,263.67205 123.58179,275.24544 90.874374,346.19537 107.98287,303.92733 99.428621,239.51888 127.60731,204.29551 42.568041,267.69758 78.797791,369.34216 74.269072,401.54639 m 78.497788,227.44232 c 8.05106,36.73296 -15.09573,90.57439 21.63721,141.39668 C 136.66475,728.11735 56.154197,717.04714 23.446784,652.6387 64.205253,810.13748 170.88174,777.93326 218.68488,812.15025 179.43598,755.28966 211.64021,717.55033 152.76686,628.98871 m -12.07658,99.12864 C 117.0403,640.05892 158.80515,609.36427 127.10412,524.82818 124.08498,572.63133 91.880756,595.77811 113.51797,682.83016 75.778645,608.86108 17.408493,581.18557 0.3,530.86648 1.3063819,669.244 112.51159,689.87483 140.69028,728.11735 M 311.27202,875.55231 C 278.5646,830.26512 300.70501,804.60238 209.12425,722.58224 c 19.62445,30.19146 -0.50319,67.9308 61.3893,126.30095 C 210.13063,813.15663 126.09774,828.25236 85.842464,780.44922 155.28282,913.29164 277.05503,858.94701 311.27202,875.55231 m 445.324,-26.66912 c 61.89249,-58.87335 41.76485,-96.61268 61.3893,-126.30095 -92.08395,82.02014 -69.44035,107.68288 -102.65096,152.97007 34.72018,-16.6053 156.4924,37.73933 225.42956,-95.10309 -39.75209,48.30633 -123.78498,32.70741 -184.1679,68.43397 m 96.10948,-78.4978 c 36.73294,-50.82229 13.58615,-104.16053 21.13402,-141.39668 -58.87334,88.56162 -26.66912,126.30095 -65.91802,183.16154 48.30634,-34.21699 154.47963,-2.01277 195.2381,-159.51155 -32.70742,64.40844 -112.71478,75.47865 -150.4541,117.74669 m -146.93176,111.7084 c -32.70742,-8.55425 -66.42121,-14.08935 -100.6382,-15.09573 -31.19784,-0.50319 -62.39568,4.52872 -91.58075,15.59892 -29.18508,-11.0702 -60.38292,-16.10211 -91.58076,-15.59892 -34.21699,1.00638 -67.93078,6.54148 -100.63819,15.09573 -55.35101,14.59254 -103.15415,26.16594 -144.919,5.03191 39.75208,35.22338 86.54884,48.30634 153.97643,40.75848 55.8542,-6.03829 101.14139,-34.217 153.97644,-33.71381 h 2.01276 c -33.2106,16.60532 -62.89887,39.7521 -87.05203,67.93083 l 25.66274,3.5223 c 0,0 26.66912,-53.84143 88.56161,-67.93079 61.89249,14.08936 88.56161,67.93079 88.56161,67.93079 l 25.66274,-3.5223 C 603.62597,933.92247 573.9377,910.77569 540.7271,894.17037 h 2.01276 c 52.83505,-0.50319 98.12224,27.67552 153.97644,33.71381 67.42759,7.04467 113.72116,-5.5351 153.97643,-40.75848 -41.76485,21.13403 -89.56799,9.56063 -144.91899,-5.03191 M 132.13603,429.22189 C 109.49244,472.9995 73.765881,483.06332 77.791409,573.13452 58.670152,493.12714 12.879774,462.93569 13.382965,412.1134 -18.318066,545.96221 66.218017,561.56113 88.358419,617.91851 84.836082,537.40796 136.16156,521.30585 132.13603,429.22189 m 31.70103,-103.15416 c -8.05105,11.0702 -13.58615,16.10211 -34.72017,33.21061 -31.701033,25.15955 -53.841436,60.88611 -61.3893,100.6382 2.012763,-49.31271 -28.178695,-119.75946 -8.051056,-171.08494 -77.9946,110.19883 4.528719,176.11685 7.547865,216.37213 19.624447,-76.98822 66.421211,-77.49141 96.612661,-179.136 m 795.04173,133.84881 c -8.05105,-39.75209 -29.68826,-75.47865 -61.3893,-100.6382 -21.13402,-17.61169 -26.66912,-22.14041 -34.72017,-33.21061 30.19146,101.64459 76.98822,102.14778 97.11585,179.136 3.01915,-39.75209 85.54243,-105.67011 7.54787,-216.37213 20.12764,51.32548 -10.06382,121.77223 -8.55425,171.08494 M 1025.3,530.86648 c -17.1085,50.82228 -75.47865,77.9946 -113.21797,151.96368 C 933.71924,595.77811 901.51502,572.63133 898.49588,524.82818 866.79485,609.36427 908.5597,640.05892 884.90972,728.11735 913.08841,689.87483 1024.2936,669.244 1025.3,530.86648 M 894.47035,429.22189 c -4.52872,92.08396 47.29995,108.18607 43.77761,188.69662 21.63721,-55.85419 106.67644,-71.9563 74.97544,-205.80511 0.5032,51.32548 -45.28717,81.01374 -64.40843,161.52431 C 952.8405,482.56013 917.61713,472.9995 894.47035,429.22189 M 190.00299,225.42953 c 19.62445,-23.64998 26.16593,-55.8542 57.36377,-79.00099 -63.90525,13.58616 -117.24349,69.94355 -131.83603,139.38392 20.12764,-23.64998 54.84782,-37.23615 74.47226,-60.38293 m 623.9568,10.06382 c 27.67551,90.57438 92.58714,70.44674 136.36476,165.04666 -4.52872,-31.70105 31.70103,-133.84881 -53.33825,-196.2445 28.68189,34.72018 20.12764,99.63182 36.73294,141.89986 -33.2106,-70.94993 -104.16053,-82.52332 -119.75945,-110.70202 m -221.40402,51.82868 c -16.6053,-7.04468 -34.21699,-11.57339 -51.82867,-14.08935 v 11.57339 c 16.6053,2.51596 32.70741,7.04468 47.80314,13.08297 2.01276,-3.52234 3.52234,-7.04468 4.02553,-10.56701 m -13.08297,-112.2116 3.52234,-3.01914 -6.54148,-3.01915 -17.61169,-0.50319 -4.52872,3.01915 -10.06381,-1.00639 v 2.51596 c 6.54148,0.50319 13.08296,1.00638 18.11487,2.01276 l 8.55425,-0.50319 z m -33.2106,375.38049 c 0,-3.01914 -4.02553,-6.03829 -9.56063,-8.55424 h -1.00638 c 0,2.51595 -0.50319,14.08934 -0.50319,20.12764 6.54148,-3.52234 11.0702,-6.54149 11.0702,-11.5734 M 344.48262,329.59007 c 0.50319,-2.01276 1.00638,-4.52872 1.50957,-6.54148 -2.51595,0.50319 -4.52871,1.00638 -7.04467,0.50319 z m -81.01374,-81.01376 41.26166,41.26167 c -49.81591,51.82867 -77.9946,121.26904 -79.00099,193.22534 H 167.3594 c 1.00638,-88.05841 35.22337,-171.58813 96.10948,-234.48701 m -25.15955,321.03587 -3.52234,-0.50319 -3.52234,-3.52234 -16.6053,-1.50957 5.03191,7.04467 -15.09573,-3.01914 4.02553,-3.52234 -3.52234,-3.52234 -11.0702,4.52872 -4.02553,7.04468 1.50958,16.6053 12.57977,30.19146 6.03829,9.56062 3.52234,1.00639 -9.56063,-18.11488 -2.01276,-9.05744 2.01276,-2.01276 -1.50957,-5.03191 5.5351,1.00638 9.05744,13.08297 2.01276,1.00638 v -9.56063 l 3.52234,2.01277 1.00638,5.03191 9.05744,2.51595 4.02552,-3.01915 1.50958,1.00639 v 7.04467 l 4.02553,5.03191 5.0319,1.00638 11.07021,18.11488 6.54148,2.01277 2.01276,-8.55426 c 11.57339,18.61808 24.65636,36.22976 40.25528,51.82868 l -41.26166,41.26166 C 204.59553,664.71528 169.37216,581.68876 167.3594,494.63672 h 58.37015 c 0.50319,25.15955 5.03191,50.82229 12.57978,74.97546 m 57.36377,-75.47865 c 0,5.5351 0.50319,11.0702 1.50957,17.10849 l -7.04467,1.50958 -1.50958,7.04467 -15.09572,19.12126 0.50319,26.16593 -15.09573,5.03191 h -8.55425 c -8.05105,-24.65636 -12.07658,-49.8159 -13.08296,-75.98184 z m 13.08296,164.54346 13.08297,7.54787 2.51595,2.01276 -9.56063,9.56063 c -4.52871,-4.52872 -8.55424,-9.05744 -12.57977,-14.08935 z m 53.33825,-311.47524 41.26165,41.26167 c -8.55424,9.56063 -16.10211,20.12764 -21.63721,31.70103 h -3.01914 l -6.03829,1.50958 h -2.01277 l -6.03829,5.5351 8.05106,-1.00638 7.04467,-1.50958 -1.50957,2.01277 -6.0383,4.02552 h -3.01914 l -9.05744,7.04468 -8.55424,-1.00638 -12.57978,23.64997 2.51596,4.52872 -7.04468,8.05105 -1.00638,10.06382 h -26.16593 c 0.50319,-50.82228 20.12764,-99.12862 54.84782,-135.86157 m 42.26804,170.58176 3.01914,-1.50957 7.54787,5.5351 -3.52234,2.51595 8.55425,5.5351 -0.50319,-6.03829 4.52871,-7.54786 5.03191,5.03191 5.03191,7.04467 -9.05743,2.51596 4.02552,8.05105 6.0383,-3.52234 -1.00639,-2.51595 4.52872,-3.01915 2.51596,-12.57977 c 3.52233,7.54786 8.05105,14.59254 13.58615,20.63083 l -41.26166,41.26166 c -20.12763,-21.13402 -32.70741,-48.30633 -36.22975,-77.49142 l 8.55425,9.05744 h 8.05106 z m -59.37654,-43.77762 1.00638,-11.5734 7.04468,-4.02552 12.57977,2.01276 2.01277,2.01276 c -1.00639,6.54149 -1.50958,13.58616 -2.01277,20.12764 H 351.5273 Z m -19.12125,40.25528 -5.5351,8.55425 h -9.56063 l -0.50319,-0.50319 c -1.50958,-9.05744 -2.51596,-18.61808 -3.01915,-27.67551 h 17.61168 l -4.02552,14.08934 z m 38.7457,113.72116 c -4.02553,-4.52872 -8.55425,-9.05743 -12.07658,-13.58615 l 2.01276,-14.59254 -6.03829,-14.08935 -1.50957,-22.1404 -7.04468,-13.58616 1.50958,-8.55424 -8.55425,-16.10211 -7.04467,-3.52234 3.01914,-8.55425 -3.01914,-6.54149 3.01914,-7.54786 h 8.05106 l 3.01914,-4.52872 h 13.58616 l 2.01276,4.02552 -3.01914,13.58616 -1.50958,2.51597 5.03191,11.0702 -3.52233,2.01276 -2.51596,-3.01915 -1.00638,1.00639 2.51596,6.54148 4.02552,7.54786 h 2.01277 l 1.00638,-7.04467 -2.01277,-2.51595 v -4.52872 l -0.50319,-9.56063 3.01915,-17.1085 -3.01915,-4.52872 h 9.56063 c 2.01277,34.72018 16.10211,67.4276 40.25528,92.58714 z m 351.2273,56.3574 c 49.8159,-51.32549 78.49779,-119.25627 80.00736,-190.2062 h 58.37015 c -2.01276,86.54885 -36.73294,169.57537 -97.61905,231.46786 z m -16.10212,-16.10211 4.52872,-5.03191 -4.52872,-22.6436 -3.01914,-1.00638 2.01276,-4.02553 -9.56063,-3.01915 -2.01276,8.05106 -1.00638,10.06383 -2.01277,2.01276 -17.61168,-17.61169 c 36.73294,-38.24252 57.86696,-88.05842 59.87973,-140.89348 h 58.37015 c -2.01277,68.43398 -29.18508,133.34561 -76.98822,182.15515 z m -51.32547,54.84782 5.5351,-11.5734 -2.01277,-5.03191 8.05106,-7.04467 v -4.02553 l -7.04468,-4.52872 5.5351,-11.57339 8.55425,-11.0702 -8.55425,-9.05744 h -6.54148 l -4.02553,-6.54148 c 3.52234,-3.01915 7.04468,-6.03829 10.06382,-9.05744 l 41.26166,41.26166 c -15.09573,14.59254 -32.20422,27.67551 -50.82228,38.24252 m -8.05106,-113.72117 -5.5351,-5.5351 4.02553,-5.5351 5.5351,-11.07021 -2.01277,-3.01914 3.52234,-8.05106 -0.50319,-7.54786 -2.01276,-7.54787 -5.03191,-1.50957 -2.01277,4.02553 -3.01914,-1.00638 c 4.52872,-6.54149 8.55424,-14.08935 12.07658,-21.13402 l 5.03191,-2.01277 3.01915,-4.02553 1.50957,1.50958 3.52233,-4.02553 -3.01914,-3.52234 2.51595,-0.50319 4.52872,2.01277 h 9.05744 l 5.5351,-3.01915 14.08935,-4.02553 -2.51596,-4.52872 -1.00638,-5.5351 7.54787,3.52234 3.01914,-1.50957 -1.50957,-6.0383 -9.56063,3.52234 -10.06382,-2.01277 -8.05105,-16.10211 h 44.78399 c -2.01276,49.81591 -22.1404,97.11586 -56.35739,132.84242 l -6.03829,-6.03829 2.51596,-8.05105 -4.52872,-18.11488 z M 619.22489,389.973 660.48655,348.71133 c 9.56063,10.56701 18.11487,22.1404 25.66274,34.21698 l -5.03191,1.50958 0.50319,9.05744 15.09573,9.56063 c 4.02553,8.55425 7.04467,17.10849 9.56063,26.16593 l -2.51596,4.02553 -5.5351,4.02553 -1.50957,8.55424 -4.02553,2.01277 -3.01915,4.02552 -3.01914,-1.50957 h -5.5351 l 3.01914,-4.52872 2.51596,-11.57339 4.02553,-2.51595 -11.0702,-10.56701 -8.05106,3.01914 -2.01276,8.05106 -5.03191,5.5351 -5.5351,-4.52872 -2.01277,-5.03191 3.01915,-2.01276 1.50957,3.01914 2.51596,-1.00638 -1.00639,-5.03191 h -3.52233 v 2.01276 l -2.51596,0.50319 -12.57977,-15.09572 -4.52872,-3.52234 1.50957,-1.50957 4.02553,-1.50958 -4.02553,-1.50957 c 0,0 -4.52872,1.00638 -5.03191,1.00638 l 2.51596,3.52234 h -6.54149 c -4.02552,-6.54148 -8.05105,-12.07658 -13.08296,-17.10849 m 6.54148,224.92637 -12.57977,-3.52234 -4.02553,1.50957 -7.04467,-5.5351 -6.54149,-2.51595 c 3.52234,-2.51596 6.54149,-5.03191 9.56063,-7.54787 l 10.56701,7.54787 8.05106,4.02553 4.02553,4.02552 z m -22.1404,-193.72853 5.03191,-1.00639 v -1.00638 l -5.03191,-3.52234 1.50957,-11.0702 6.03829,-6.54148 c 4.02553,4.52872 7.54787,9.05744 11.07021,14.08935 l -2.01277,6.54148 -5.5351,-4.02553 -4.52872,1.00638 2.01277,4.02553 h 2.01276 l -2.51595,6.03829 -1.50958,-2.51595 z m 69.94354,40.25527 10.56701,-5.5351 10.56701,-1.50957 2.51596,-5.03191 6.03829,-3.52234 2.51596,-5.03191 2.01276,-8.55424 c 1.00638,3.01914 1.50957,6.03829 2.51595,9.05743 l -5.5351,16.60531 v 5.5351 l 7.04468,-11.5734 c 1.50957,10.06382 2.51595,20.63083 3.01914,30.69465 h -51.32548 l -1.00638,-4.52872 6.03829,-4.52871 1.00639,-3.01915 2.51595,-2.01276 7.04467,-1.00639 0.5032,-3.01914 z m 11.5734,-136.86795 14.08934,0.50319 3.52234,4.02553 -1.50957,6.03829 19.62444,12.07658 4.02553,-0.50319 24.65636,28.68189 10.06382,-3.52234 c 16.10211,34.72019 24.65636,72.9627 25.15955,111.20521 h -58.37015 c 0,-15.09572 -2.01277,-29.68826 -5.53511,-44.2808 l 2.51596,-3.52234 3.52234,-18.61806 -2.51596,-19.62445 -7.04467,-22.6436 -16.10211,-23.64998 4.02552,2.01276 2.01277,-2.01276 -13.08297,-9.05744 -1.00638,3.01915 13.08297,18.61806 7.54786,15.09573 5.03191,15.09574 1.50957,10.06382 2.51596,17.10849 -5.03191,0.5032 c 0,0 -5.5351,-10.56701 -7.54787,-15.09573 l 2.51596,-4.02553 -5.03191,-7.04467 v -6.54149 l -3.52234,-4.52872 -4.52872,0.50319 c -1.50957,-3.01915 -3.01914,-6.0383 -5.03191,-8.55425 l 3.01915,1.50957 1.00638,-1.00638 -1.50957,-3.52234 4.02553,-2.01276 -1.50958,-2.01277 -5.5351,2.01277 2.01277,-9.05744 -3.52234,-2.01276 -3.01915,7.04467 c -6.54148,-9.56063 -13.58615,-18.61806 -21.13402,-27.17231 z m 74.47226,-74.97546 c 60.38292,62.89888 94.09671,146.42859 95.10309,233.48062 H 796.34811 C 795.84492,439.7889 785.7811,397.01767 766.15665,358.27195 l 0.50319,-1.00638 4.02553,2.01277 1.00638,-3.01915 -10.56701,-18.11487 -12.57977,-17.1085 -14.59254,-12.07658 c -5.03191,-6.03829 -10.06382,-12.07658 -15.59892,-18.11488 z M 587.52386,596.2813 m -76.48503,245.05402 c 196.24448,0 355.25282,-159.51154 354.74963,-355.75604 0,-182.15514 -137.87432,-334.62202 -319.02307,-353.24008 l -0.50319,2.01276 c -0.50319,3.52234 -1.50957,6.54148 -2.01276,9.56063 77.9946,7.54786 150.95729,41.76485 206.81148,96.61267 l -39.24889,39.2489 1.50957,-7.04467 -5.03191,-2.51595 -6.54148,0.50319 1.50957,-4.52872 -4.52872,-16.10212 -9.56063,-10.56701 -30.69465,-16.10211 -2.51595,3.01914 -5.5351,1.50957 c 10.56701,15.09573 16.10211,33.21062 16.10211,51.32549 v 7.04468 l 15.09573,19.12125 -7.04467,1.50958 4.52871,7.04467 -13.58615,13.58616 -5.5351,-10.06382 c -2.51596,7.04467 -6.03829,14.08934 -10.06382,20.12763 l 3.01914,2.51596 -41.76485,41.26166 c -2.51595,-2.51596 -5.03191,-4.52872 -7.54786,-7.04467 -4.02553,2.01276 -8.05106,3.52233 -12.07658,5.03191 l 3.52233,2.51595 -2.01276,2.01277 -5.03191,2.51596 -2.01276,5.03191 -3.01915,-3.01915 -8.55425,3.01915 2.51596,4.02553 6.03829,-1.50958 4.02553,0.50319 0.50319,-2.01276 3.01914,-1.50957 1.00639,-1.50958 5.5351,-1.50957 h 4.02552 l 2.51596,2.01277 -16.10211,16.6053 -1.00638,-1.50958 -17.1085,3.01915 -4.02552,4.02553 -3.52234,0.50319 10.56701,-10.06382 -4.02553,-2.01276 -10.06382,13.08296 3.01915,-0.50319 v 5.03191 l 3.52234,1.50957 0.50319,5.03191 -6.0383,-1.00638 -6.03829,1.00638 -15.09573,-7.54786 c 0,0 -1.00638,40.25527 -1.00638,60.38291 35.22337,12.07659 72.96269,29.18508 72.96269,74.47228 0.50319,19.12125 -9.56063,37.23613 -25.66274,47.80314 l -1.00638,0.50319 -1.00638,1.00638 c -14.08935,9.56063 -32.70741,14.59254 -48.80952,19.62445 l -0.5032,31.70104 c 25.66274,12.57977 56.35739,31.19784 53.33825,83.5297 -0.50319,13.08297 -5.5351,16.6053 -9.56063,17.61168 -15.09573,3.52234 -30.69465,6.0383 -45.79038,7.04468 v 11.5734 c 66.42121,-4.52873 128.81689,-32.20423 177.12322,-77.99461 l 41.26166,41.26166 C 617.21213,863.47573 407.38149,863.47573 274.53908,736.67159 l 41.26166,-41.26166 c 47.80314,44.784 109.69563,71.95631 175.11045,76.98823 v -11.5734 C 428.51551,755.79285 370.14536,730.13011 324.85817,686.85569 l 10.56701,-11.07021 15.09573,1.50958 8.05106,-8.55425 21.13402,1.00638 3.01915,-7.54786 -1.00639,-3.01915 c 31.19784,23.64998 68.43397,38.74571 107.68287,42.77123 V 690.37802 C 446.1272,685.34611 405.87192,667.23124 373.6677,637.54296 l 41.26166,-41.26166 c 10.06382,9.05744 21.13402,16.6053 33.71379,22.6436 1.00638,-4.02553 2.01277,-7.54787 4.02553,-11.07021 -10.56701,-5.5351 -20.63083,-12.07658 -29.18508,-19.62444 l 41.26166,-41.26166 c 6.54149,5.03191 14.08935,9.56063 21.63721,12.07658 V 546.4654 c -5.03191,-2.01277 -9.56062,-5.03191 -13.58615,-8.05106 l 11.57339,-11.57339 c -4.02553,-1.00638 -8.05106,-2.51596 -12.07658,-4.02553 l -8.05106,8.05106 c -4.02553,-4.52872 -7.54786,-9.56063 -10.06382,-14.59254 -7.04467,-3.01915 -14.08934,-6.54149 -20.63083,-11.07021 -24.15316,-14.59254 -38.7457,-41.26166 -38.24251,-69.94355 -0.50319,-19.12125 5.03191,-38.24251 16.6053,-53.33825 l -41.26166,-41.26166 c 30.19146,-29.18508 68.93716,-47.80314 110.19882,-54.34462 v -11.5734 c -44.2808,6.54149 -86.04565,26.66913 -118.24987,57.86697 l -7.04468,-7.04468 c -1.50957,2.51596 -3.52233,6.03829 -5.5351,10.56701 l 4.52872,4.52872 c -36.73294,38.74571 -57.36377,90.07119 -58.37015,143.40944 h -58.87334 c 1.00638,-68.93717 27.6755,-134.85519 75.47864,-185.17429 l 18.61807,18.61807 h 2.51595 c 3.52234,-0.50319 7.54787,-1.50958 10.56701,-3.01915 l -23.64997,-23.64998 c 12.57977,-12.07658 26.16593,-23.14678 40.75846,-32.70741 1.00639,-3.01914 1.50958,-6.0383 3.01915,-8.55425 2.51596,-4.02553 5.5351,-8.05106 9.05744,-12.07659 -22.1404,12.07659 -42.26804,27.17232 -60.38292,44.78401 l -41.26166,-41.26167 c 55.35101,-53.84143 127.30732,-87.55523 204.79873,-95.60629 0,-1.50957 -0.5032,-2.51595 -0.5032,-2.51595 -0.50319,-3.01915 -1.00638,-5.5351 -1.50957,-9.05744 C 279.0678,153.97641 137.67113,328.58369 158.30196,523.8218 177.42322,704.46737 329.38689,841.83851 511.03883,841.33532 m 174.60727,-613.89303 -3.52234,-5.5351 -7.54786,-4.02553 -6.0383,4.52872 7.54787,4.02553 8.55425,6.03829 z m -35.22337,165.04666 0.50319,4.52872 10.06382,-3.01915 3.01915,-6.03829 -7.04468,-9.05745 3.52234,-5.5351 9.56063,6.54149 1.50957,-1.50958 -2.01276,-1.50957 -2.01277,-4.02553 4.02553,-2.01276 -4.02553,-5.03191 -9.05744,4.52872 -3.01914,5.5351 -2.01276,5.03191 4.02552,6.54149 -1.50957,3.01915 z m -421.67403,261.65932 0.50319,-2.51595 -5.03191,-11.5734 -6.03829,-2.51596 z M 466.75803,434.75699 c 0,10.06382 6.03829,16.6053 16.6053,22.64359 v -4.52871 l -6.54148,-7.04468 3.52233,-6.54148 3.01915,-1.00638 c -0.50319,-11.57339 -0.50319,-24.15317 -0.50319,-26.16593 h -0.50319 c -10.06382,6.03829 -15.09573,13.08296 -15.59892,22.64359"
       id="path2"
       style="fill:#ffffff;fill-opacity:1;stroke-width:5.03191" />
  </g>
</svg>
